<?xml version="1.0" encoding="UTF-8" standalone="no"?>
<!-- Created with Inkscape (http://www.inkscape.org/) -->
<svg xmlns:dc="http://purl.org/dc/elements/1.1/" xmlns:cc="http://web.resource.org/cc/" xmlns:rdf="http://www.w3.org/1999/02/22-rdf-syntax-ns#" xmlns:svg="http://www.w3.org/2000/svg" xmlns="http://www.w3.org/2000/svg" xmlns:xlink="http://www.w3.org/1999/xlink" xmlns:sodipodi="http://sodipodi.sourceforge.net/DTD/sodipodi-0.dtd" xmlns:inkscape="http://www.inkscape.org/namespaces/inkscape" width="316.60504" height="332.12491" id="svg2" sodipodi:version="0.32" inkscape:version="0.45" sodipodi:docbase="/home/evans/Desktop" sodipodi:docname="Chrisdesign_tomato.svg" inkscape:output_extension="org.inkscape.output.svg.inkscape" sodipodi:modified="true" version="1.0">
  <defs id="defs4">
    <linearGradient id="linearGradient20022">
      <stop style="stop-color: rgb(21, 38, 9); stop-opacity: 1;" offset="0" id="stop20024"/>
      <stop style="stop-color: rgb(69, 117, 38); stop-opacity: 1;" offset="1" id="stop20026"/>
    </linearGradient>
    <linearGradient id="linearGradient13882">
      <stop style="stop-color: rgb(22, 56, 0); stop-opacity: 1;" offset="0" id="stop13884"/>
      <stop id="stop23023" offset="0.69503546" style="stop-color: rgb(89, 140, 29); stop-opacity: 1;"/>
      <stop style="stop-color: rgb(145, 161, 37); stop-opacity: 1;" offset="1" id="stop13886"/>
    </linearGradient>
    <linearGradient id="linearGradient9792">
      <stop style="stop-color: rgb(255, 134, 38); stop-opacity: 1;" offset="0" id="stop9794"/>
      <stop style="stop-color: rgb(225, 46, 0); stop-opacity: 1;" offset="1" id="stop9796"/>
    </linearGradient>
    <linearGradient inkscape:collect="always" id="linearGradient8731">
      <stop style="stop-color: rgb(255, 255, 255); stop-opacity: 1;" offset="0" id="stop8733"/>
      <stop style="stop-color: rgb(255, 255, 255); stop-opacity: 0;" offset="1" id="stop8735"/>
    </linearGradient>
    <filter id="filter38751" height="2.1931019" y="-0.59655094" width="1.1481797" x="-0.074089833" inkscape:collect="always">
      <feGaussianBlur id="feGaussianBlur38753" stdDeviation="9.8808712" inkscape:collect="always"/>
    </filter>
    <filter id="filter35726" height="1.8775307" y="-0.43876535" width="1.1250638" x="-0.062531874" inkscape:collect="always">
      <feGaussianBlur id="feGaussianBlur35728" stdDeviation="5.1544931" inkscape:collect="always"/>
    </filter>
    <pattern id="pattern30611" patternTransform="translate(160.892, -165.998)" height="24.735281" width="39.501228" patternUnits="userSpaceOnUse">
      <rect style="fill: url(#pattern30614) rgb(0, 0, 0); stroke: none;" width="32.881989" height="19.296179" x="1.72435" y="5.4391022" id="rect26672"/>
      <rect style="fill: none; stroke: none;" width="39.501228" height="24.735281" x="0" y="0" id="rect25640"/>
    </pattern>
    <radialGradient r="44.555969" fy="44.942459" fx="-81.081718" cy="44.942459" cx="-81.081718" gradientTransform="matrix(-0.0146025, -0.960198, 1.93539, -0.0281315, 127.596, 52.0179)" gradientUnits="userSpaceOnUse" id="radialGradient30607" xlink:href="#linearGradient15314" inkscape:collect="always"/>
    <clipPath id="clipPath30603" clipPathUnits="userSpaceOnUse">
      <path style="fill: url(#radialGradient30607) rgb(0, 0, 0); fill-opacity: 1; fill-rule: evenodd; stroke: none; stroke-width: 1px; stroke-linecap: butt; stroke-linejoin: miter; stroke-opacity: 1;" d="M 172.54666,119.65383 C 172.54666,119.65383 192.66287,134.89283 226.62458,131.41512 C 260.77261,127.89569 267.40899,121.36033 267.40899,121.36033 C 295.93157,89.77874 131.21095,96.219036 172.54666,119.65383 z " id="path30605" sodipodi:nodetypes="cscc"/>
    </clipPath>
    <linearGradient gradientTransform="translate(-0.134796, -0.808775)" gradientUnits="userSpaceOnUse" y2="109.28474" x2="243.94995" y1="147.26143" x1="211.02544" id="linearGradient30599" xlink:href="#linearGradient30593" inkscape:collect="always"/>
    <clipPath id="clipPath29604" clipPathUnits="userSpaceOnUse">
      <path style="fill: rgb(55, 42, 7); fill-opacity: 1; fill-rule: evenodd; stroke: none; stroke-width: 1px; stroke-linecap: butt; stroke-linejoin: miter; stroke-opacity: 1;" d="M 214.7035,131.11718 L 220.7805,131.36252 C 218.24621,133.08292 225.61431,96.01338 236.79475,88.623123 C 241.62695,85.429034 235.59151,76.308077 232.97417,77.689778 C 232.97417,77.689778 226.50397,82.360861 225.74403,85.783757 C 224.9841,89.206643 219.02497,103.38716 217.6128,113.62948 C 216.20062,123.8718 215.05025,128.51732 214.7035,131.11718 z " id="path29606" sodipodi:nodetypes="ccscssc"/>
    </clipPath>
    <pattern id="pattern26663" patternTransform="translate(163.814, -152.846)" height="46.659165" width="55.732779" patternUnits="userSpaceOnUse">
      <path sodipodi:type="arc" style="overflow: visible; marker: none; opacity: 1; color: rgb(0, 0, 0); fill: rgb(215, 235, 144); fill-opacity: 1; fill-rule: evenodd; stroke: none; stroke-width: 1.58397px; stroke-linecap: butt; stroke-linejoin: miter; stroke-miterlimit: 4; stroke-dasharray: none; stroke-dashoffset: 0pt; stroke-opacity: 1; visibility: visible; display: inline;" id="path26661" sodipodi:cx="-281.60489" sodipodi:cy="-209.70604" sodipodi:rx="2.8861411" sodipodi:ry="7.8338113" d="M -278.71875 -209.70604 A 2.8861411 7.8338113 0 1 1  -284.49103,-209.70604 A 2.8861411 7.8338113 0 1 1  -278.71875 -209.70604 z" transform="matrix(0.740922, 0, 0, 0.459741, 262.242, 100.965)"/>
      <path sodipodi:type="arc" style="overflow: visible; marker: none; opacity: 1; color: rgb(0, 0, 0); fill: rgb(215, 235, 144); fill-opacity: 1; fill-rule: evenodd; stroke: none; stroke-width: 1.58397px; stroke-linecap: butt; stroke-linejoin: miter; stroke-miterlimit: 4; stroke-dasharray: none; stroke-dashoffset: 0pt; stroke-opacity: 1; visibility: visible; display: inline;" id="path26657" sodipodi:cx="-281.60489" sodipodi:cy="-209.70604" sodipodi:rx="2.8861411" sodipodi:ry="7.8338113" d="M -278.71875 -209.70604 A 2.8861411 7.8338113 0 1 1  -284.49103,-209.70604 A 2.8861411 7.8338113 0 1 1  -278.71875 -209.70604 z" transform="matrix(0.740922, 0, 0, 0.459741, 253.164, 126.803)"/>
      <path transform="matrix(0.740922, 0, 0, 0.459741, 241.636, 111.216)" d="M -278.71875 -209.70604 A 2.8861411 7.8338113 0 1 1  -284.49103,-209.70604 A 2.8861411 7.8338113 0 1 1  -278.71875 -209.70604 z" sodipodi:ry="7.8338113" sodipodi:rx="2.8861411" sodipodi:cy="-209.70604" sodipodi:cx="-281.60489" id="path26655" style="overflow: visible; marker: none; opacity: 1; color: rgb(0, 0, 0); fill: rgb(215, 235, 144); fill-opacity: 1; fill-rule: evenodd; stroke: none; stroke-width: 1.58397px; stroke-linecap: butt; stroke-linejoin: miter; stroke-miterlimit: 4; stroke-dasharray: none; stroke-dashoffset: 0pt; stroke-opacity: 1; visibility: visible; display: inline;" sodipodi:type="arc"/>
      <path sodipodi:type="arc" style="overflow: visible; marker: none; opacity: 1; color: rgb(0, 0, 0); fill: rgb(215, 235, 144); fill-opacity: 1; fill-rule: evenodd; stroke: none; stroke-width: 1.58397px; stroke-linecap: butt; stroke-linejoin: miter; stroke-miterlimit: 4; stroke-dasharray: none; stroke-dashoffset: 0pt; stroke-opacity: 1; visibility: visible; display: inline;" id="path26649" sodipodi:cx="-281.60489" sodipodi:cy="-209.70604" sodipodi:rx="2.8861411" sodipodi:ry="7.8338113" d="M -278.71875 -209.70604 A 2.8861411 7.8338113 0 1 1  -284.49103,-209.70604 A 2.8861411 7.8338113 0 1 1  -278.71875 -209.70604 z" transform="matrix(0.740922, 0, 0, 0.459741, 219.229, 100.012)"/>
      <path transform="matrix(0.740922, 0, 0, 0.459741, 236.44, 139.468)" d="M -278.71875 -209.70604 A 2.8861411 7.8338113 0 1 1  -284.49103,-209.70604 A 2.8861411 7.8338113 0 1 1  -278.71875 -209.70604 z" sodipodi:ry="7.8338113" sodipodi:rx="2.8861411" sodipodi:cy="-209.70604" sodipodi:cx="-281.60489" id="path26647" style="overflow: visible; marker: none; opacity: 1; color: rgb(0, 0, 0); fill: rgb(215, 235, 144); fill-opacity: 1; fill-rule: evenodd; stroke: none; stroke-width: 1.58397px; stroke-linecap: butt; stroke-linejoin: miter; stroke-miterlimit: 4; stroke-dasharray: none; stroke-dashoffset: 0pt; stroke-opacity: 1; visibility: visible; display: inline;" sodipodi:type="arc"/>
      <path sodipodi:type="arc" style="overflow: visible; marker: none; opacity: 1; color: rgb(0, 0, 0); fill: rgb(215, 235, 144); fill-opacity: 1; fill-rule: evenodd; stroke: none; stroke-width: 1.58397px; stroke-linecap: butt; stroke-linejoin: miter; stroke-miterlimit: 4; stroke-dasharray: none; stroke-dashoffset: 0pt; stroke-opacity: 1; visibility: visible; display: inline;" id="path26645" sodipodi:cx="-281.60489" sodipodi:cy="-209.70604" sodipodi:rx="2.8861411" sodipodi:ry="7.8338113" d="M -278.71875 -209.70604 A 2.8861411 7.8338113 0 1 1  -284.49103,-209.70604 A 2.8861411 7.8338113 0 1 1  -278.71875 -209.70604 z" transform="matrix(0.740922, 0, 0, 0.459741, 210.786, 125.504)"/>
      <path transform="matrix(0.740922, 0, 0, 0.459741, 210.786, 125.504)" d="M -278.71875 -209.70604 A 2.8861411 7.8338113 0 1 1  -284.49103,-209.70604 A 2.8861411 7.8338113 0 1 1  -278.71875 -209.70604 z" sodipodi:ry="7.8338113" sodipodi:rx="2.8861411" sodipodi:cy="-209.70604" sodipodi:cx="-281.60489" id="path26643" style="overflow: visible; marker: none; opacity: 1; color: rgb(0, 0, 0); fill: rgb(215, 235, 144); fill-opacity: 1; fill-rule: evenodd; stroke: none; stroke-width: 1.58397px; stroke-linecap: butt; stroke-linejoin: miter; stroke-miterlimit: 4; stroke-dasharray: none; stroke-dashoffset: 0pt; stroke-opacity: 1; visibility: visible; display: inline;" sodipodi:type="arc"/>
    </pattern>
    <pattern id="pattern25626" patternTransform="translate(160.892, -165.998)" height="59.811197" width="66.951949" patternUnits="userSpaceOnUse">
      <path transform="matrix(0.740922, 0, 0, 0.459741, 273.461, 101.149)" d="M -278.71875 -209.70604 A 2.8861411 7.8338113 0 1 1  -284.49103,-209.70604 A 2.8861411 7.8338113 0 1 1  -278.71875 -209.70604 z" sodipodi:ry="7.8338113" sodipodi:rx="2.8861411" sodipodi:cy="-209.70604" sodipodi:cx="-281.60489" id="path25620" style="overflow: visible; marker: none; opacity: 1; color: rgb(0, 0, 0); fill: rgb(215, 235, 144); fill-opacity: 1; fill-rule: evenodd; stroke: none; stroke-width: 1.58397px; stroke-linecap: butt; stroke-linejoin: miter; stroke-miterlimit: 4; stroke-dasharray: none; stroke-dashoffset: 0pt; stroke-opacity: 1; visibility: visible; display: inline;" sodipodi:type="arc"/>
      <path sodipodi:type="arc" style="overflow: visible; marker: none; opacity: 1; color: rgb(0, 0, 0); fill: rgb(215, 235, 144); fill-opacity: 1; fill-rule: evenodd; stroke: none; stroke-width: 1.58397px; stroke-linecap: butt; stroke-linejoin: miter; stroke-miterlimit: 4; stroke-dasharray: none; stroke-dashoffset: 0pt; stroke-opacity: 1; visibility: visible; display: inline;" id="path25618" sodipodi:cx="-281.60489" sodipodi:cy="-209.70604" sodipodi:rx="2.8861411" sodipodi:ry="7.8338113" d="M -278.71875 -209.70604 A 2.8861411 7.8338113 0 1 1  -284.49103,-209.70604 A 2.8861411 7.8338113 0 1 1  -278.71875 -209.70604 z" transform="matrix(0.740922, 0, 0, 0.459741, 210.786, 100.012)"/>
      <path transform="matrix(0.740922, 0, 0, 0.459741, 213.708, 138.656)" d="M -278.71875 -209.70604 A 2.8861411 7.8338113 0 1 1  -284.49103,-209.70604 A 2.8861411 7.8338113 0 1 1  -278.71875 -209.70604 z" sodipodi:ry="7.8338113" sodipodi:rx="2.8861411" sodipodi:cy="-209.70604" sodipodi:cx="-281.60489" id="path25616" style="overflow: visible; marker: none; opacity: 1; color: rgb(0, 0, 0); fill: rgb(215, 235, 144); fill-opacity: 1; fill-rule: evenodd; stroke: none; stroke-width: 1.58397px; stroke-linecap: butt; stroke-linejoin: miter; stroke-miterlimit: 4; stroke-dasharray: none; stroke-dashoffset: 0pt; stroke-opacity: 1; visibility: visible; display: inline;" sodipodi:type="arc"/>
      <path sodipodi:type="arc" style="overflow: visible; marker: none; opacity: 1; color: rgb(0, 0, 0); fill: rgb(215, 235, 144); fill-opacity: 1; fill-rule: evenodd; stroke: none; stroke-width: 1.58397px; stroke-linecap: butt; stroke-linejoin: miter; stroke-miterlimit: 4; stroke-dasharray: none; stroke-dashoffset: 0pt; stroke-opacity: 1; visibility: visible; display: inline;" id="path25614" sodipodi:cx="-281.60489" sodipodi:cy="-209.70604" sodipodi:rx="2.8861411" sodipodi:ry="7.8338113" d="M -278.71875 -209.70604 A 2.8861411 7.8338113 0 1 1  -284.49103,-209.70604 A 2.8861411 7.8338113 0 1 1  -278.71875 -209.70604 z" transform="matrix(0.740922, 0, 0, 0.459741, 213.708, 138.656)"/>
      <path transform="matrix(0.740922, 0, 0, 0.459741, 239.363, 152.62)" d="M -278.71875 -209.70604 A 2.8861411 7.8338113 0 1 1  -284.49103,-209.70604 A 2.8861411 7.8338113 0 1 1  -278.71875 -209.70604 z" sodipodi:ry="7.8338113" sodipodi:rx="2.8861411" sodipodi:cy="-209.70604" sodipodi:cx="-281.60489" id="path25612" style="overflow: visible; marker: none; opacity: 1; color: rgb(0, 0, 0); fill: rgb(215, 235, 144); fill-opacity: 1; fill-rule: evenodd; stroke: none; stroke-width: 1.58397px; stroke-linecap: butt; stroke-linejoin: miter; stroke-miterlimit: 4; stroke-dasharray: none; stroke-dashoffset: 0pt; stroke-opacity: 1; visibility: visible; display: inline;" sodipodi:type="arc"/>
      <path sodipodi:type="arc" style="overflow: visible; marker: none; opacity: 1; color: rgb(0, 0, 0); fill: rgb(215, 235, 144); fill-opacity: 1; fill-rule: evenodd; stroke: none; stroke-width: 1.58397px; stroke-linecap: butt; stroke-linejoin: miter; stroke-miterlimit: 4; stroke-dasharray: none; stroke-dashoffset: 0pt; stroke-opacity: 1; visibility: visible; display: inline;" id="path25610" sodipodi:cx="-281.60489" sodipodi:cy="-209.70604" sodipodi:rx="2.8861411" sodipodi:ry="7.8338113" d="M -278.71875 -209.70604 A 2.8861411 7.8338113 0 1 1  -284.49103,-209.70604 A 2.8861411 7.8338113 0 1 1  -278.71875 -209.70604 z" transform="matrix(0.740922, 0, 0, 0.459741, 222.152, 113.164)"/>
      <path transform="matrix(0.740922, 0, 0, 0.459741, 228.159, 135.734)" d="M -278.71875 -209.70604 A 2.8861411 7.8338113 0 1 1  -284.49103,-209.70604 A 2.8861411 7.8338113 0 1 1  -278.71875 -209.70604 z" sodipodi:ry="7.8338113" sodipodi:rx="2.8861411" sodipodi:cy="-209.70604" sodipodi:cx="-281.60489" id="path25608" style="overflow: visible; marker: none; opacity: 1; color: rgb(0, 0, 0); fill: rgb(215, 235, 144); fill-opacity: 1; fill-rule: evenodd; stroke: none; stroke-width: 1.58397px; stroke-linecap: butt; stroke-linejoin: miter; stroke-miterlimit: 4; stroke-dasharray: none; stroke-dashoffset: 0pt; stroke-opacity: 1; visibility: visible; display: inline;" sodipodi:type="arc"/>
      <path sodipodi:type="arc" style="overflow: visible; marker: none; opacity: 1; color: rgb(0, 0, 0); fill: rgb(215, 235, 144); fill-opacity: 1; fill-rule: evenodd; stroke: none; stroke-width: 1.58397px; stroke-linecap: butt; stroke-linejoin: miter; stroke-miterlimit: 4; stroke-dasharray: none; stroke-dashoffset: 0pt; stroke-opacity: 1; visibility: visible; display: inline;" id="path25606" sodipodi:cx="-281.60489" sodipodi:cy="-209.70604" sodipodi:rx="2.8861411" sodipodi:ry="7.8338113" d="M -278.71875 -209.70604 A 2.8861411 7.8338113 0 1 1  -284.49103,-209.70604 A 2.8861411 7.8338113 0 1 1  -278.71875 -209.70604 z" transform="matrix(0.740922, 0, 0, 0.459741, 238.551, 107.156)"/>
      <path transform="matrix(0.740922, 0, 0, 0.459741, 244.559, 124.368)" d="M -278.71875 -209.70604 A 2.8861411 7.8338113 0 1 1  -284.49103,-209.70604 A 2.8861411 7.8338113 0 1 1  -278.71875 -209.70604 z" sodipodi:ry="7.8338113" sodipodi:rx="2.8861411" sodipodi:cy="-209.70604" sodipodi:cx="-281.60489" id="path25604" style="overflow: visible; marker: none; opacity: 1; color: rgb(0, 0, 0); fill: rgb(215, 235, 144); fill-opacity: 1; fill-rule: evenodd; stroke: none; stroke-width: 1.58397px; stroke-linecap: butt; stroke-linejoin: miter; stroke-miterlimit: 4; stroke-dasharray: none; stroke-dashoffset: 0pt; stroke-opacity: 1; visibility: visible; display: inline;" sodipodi:type="arc"/>
      <path sodipodi:type="arc" style="overflow: visible; marker: none; opacity: 1; color: rgb(0, 0, 0); fill: rgb(215, 235, 144); fill-opacity: 1; fill-rule: evenodd; stroke: none; stroke-width: 1.58397px; stroke-linecap: butt; stroke-linejoin: miter; stroke-miterlimit: 4; stroke-dasharray: none; stroke-dashoffset: 0pt; stroke-opacity: 1; visibility: visible; display: inline;" id="path25602" sodipodi:cx="-281.60489" sodipodi:cy="-209.70604" sodipodi:rx="2.8861411" sodipodi:ry="7.8338113" d="M -278.71875 -209.70604 A 2.8861411 7.8338113 0 1 1  -284.49103,-209.70604 A 2.8861411 7.8338113 0 1 1  -278.71875 -209.70604 z" transform="matrix(0.740922, 0, 0, 0.459741, 256.087, 139.955)"/>
      <path transform="matrix(0.740922, 0, 0, 0.459741, 269.239, 131.187)" d="M -278.71875 -209.70604 A 2.8861411 7.8338113 0 1 1  -284.49103,-209.70604 A 2.8861411 7.8338113 0 1 1  -278.71875 -209.70604 z" sodipodi:ry="7.8338113" sodipodi:rx="2.8861411" sodipodi:cy="-209.70604" sodipodi:cx="-281.60489" id="path25600" style="overflow: visible; marker: none; opacity: 1; color: rgb(0, 0, 0); fill: rgb(215, 235, 144); fill-opacity: 1; fill-rule: evenodd; stroke: none; stroke-width: 1.58397px; stroke-linecap: butt; stroke-linejoin: miter; stroke-miterlimit: 4; stroke-dasharray: none; stroke-dashoffset: 0pt; stroke-opacity: 1; visibility: visible; display: inline;" sodipodi:type="arc"/>
      <path sodipodi:type="arc" style="overflow: visible; marker: none; opacity: 1; color: rgb(0, 0, 0); fill: rgb(215, 235, 144); fill-opacity: 1; fill-rule: evenodd; stroke: none; stroke-width: 1.58397px; stroke-linecap: butt; stroke-linejoin: miter; stroke-miterlimit: 4; stroke-dasharray: none; stroke-dashoffset: 0pt; stroke-opacity: 1; visibility: visible; display: inline;" id="path20550" sodipodi:cx="-281.60489" sodipodi:cy="-209.70604" sodipodi:rx="2.8861411" sodipodi:ry="7.8338113" d="M -278.71875 -209.70604 A 2.8861411 7.8338113 0 1 1  -284.49103,-209.70604 A 2.8861411 7.8338113 0 1 1  -278.71875 -209.70604 z" transform="matrix(0.740922, 0, 0, 0.459741, 261.77, 113.976)"/>
    </pattern>
    <linearGradient y2="295.46683" x2="-51.159306" y1="206.26599" x1="-47.223972" gradientUnits="userSpaceOnUse" id="linearGradient14308" xlink:href="#linearGradient13303" inkscape:collect="always"/>
    <linearGradient y2="272.92316" x2="-28.859095" y1="174.78334" x1="-24.923763" gradientUnits="userSpaceOnUse" id="linearGradient14306" xlink:href="#linearGradient8740" inkscape:collect="always"/>
    <radialGradient r="121.719" fy="281.67221" fx="-55.114441" cy="281.67221" cx="-55.114441" gradientTransform="matrix(0.183211, 0.969938, -0.949456, 0.179342, 248.674, 249.873)" gradientUnits="userSpaceOnUse" id="radialGradient14304" xlink:href="#linearGradient13291" inkscape:collect="always"/>
    <clipPath id="clipPath14290" clipPathUnits="userSpaceOnUse">
      <path style="overflow: visible; marker: none; opacity: 1; color: rgb(0, 0, 0); fill: rgb(110, 168, 39); fill-opacity: 1; fill-rule: nonzero; stroke: none; stroke-width: 1px; stroke-linecap: butt; stroke-linejoin: miter; stroke-miterlimit: 4; stroke-dashoffset: 0pt; stroke-opacity: 1; visibility: visible; display: inline;" d="M 97.161922,268.95702 C 76.144197,373.5595 33.601966,387.65483 -6.3818716,385.9497 C -14.096432,385.62072 -13.751067,387.1818 -22.477123,386.05149 C -30.085247,385.06598 -43.344186,380.03144 -51.020811,380.6133 C -96.983148,384.09705 -141.03091,322.13286 -141.03091,263.13315 C -141.03091,196.58722 -97.946289,152.90688 -30.33576,151.3125 C 62.915688,149.13023 97.161922,202.41109 97.161922,268.95702 z " id="path14292" sodipodi:nodetypes="csssssc"/>
    </clipPath>
    <clipPath id="clipPath14286" clipPathUnits="userSpaceOnUse">
      <path style="overflow: visible; marker: none; opacity: 1; color: rgb(0, 0, 0); fill: rgb(110, 168, 39); fill-opacity: 1; fill-rule: nonzero; stroke: none; stroke-width: 1px; stroke-linecap: butt; stroke-linejoin: miter; stroke-miterlimit: 4; stroke-dashoffset: 0pt; stroke-opacity: 1; visibility: visible; display: inline;" d="M 95.241756,274.24608 C 74.747508,373.18713 33.264854,386.51958 -5.7231283,384.90674 C -13.245546,384.59556 -12.908783,386.07215 -21.417504,385.00302 C -28.836136,384.07085 -41.764842,379.30879 -49.25027,379.85916 C -94.067848,383.15436 -137.01853,324.54387 -137.01853,268.73742 C -137.01853,205.79317 -95.007,164.47695 -29.08041,162.96886 C 61.848474,160.90471 95.241756,211.30183 95.241756,274.24608 z " id="path14288" sodipodi:nodetypes="csssssc"/>
    </clipPath>
    <clipPath id="clipPath14282" clipPathUnits="userSpaceOnUse">
      <path style="overflow: visible; marker: none; opacity: 1; color: rgb(0, 0, 0); fill: rgb(110, 168, 39); fill-opacity: 1; fill-rule: nonzero; stroke: none; stroke-width: 1px; stroke-linecap: butt; stroke-linejoin: miter; stroke-miterlimit: 4; stroke-dashoffset: 0pt; stroke-opacity: 1; visibility: visible; display: inline;" d="M 100.84271,272.89235 C 79.36216,377.49483 35.88312,391.59016 -4.98119,389.88503 C -12.86563,389.55605 -12.51266,391.11713 -21.43087,389.98682 C -29.20653,389.00131 -42.75744,383.96677 -50.60311,384.54863 C -97.57757,388.03238 -142.59529,326.06819 -142.59529,267.06848 C -142.59529,200.52255 -98.56192,156.84221 -29.46256,155.24783 C 65.84235,153.06556 100.84271,206.34642 100.84271,272.89235 z " id="path14284" sodipodi:nodetypes="csssssc"/>
    </clipPath>
    <linearGradient gradientUnits="userSpaceOnUse" y2="295.46683" x2="-51.159306" y1="206.26599" x1="-47.223972" id="linearGradient13311" xlink:href="#linearGradient13303" inkscape:collect="always"/>
    <radialGradient gradientUnits="userSpaceOnUse" gradientTransform="matrix(0.183211, 0.969938, -0.949456, 0.179342, 248.674, 249.873)" r="121.719" fy="281.67221" fx="-55.114441" cy="281.67221" cx="-55.114441" id="radialGradient13301" xlink:href="#linearGradient13291" inkscape:collect="always"/>
    <linearGradient gradientUnits="userSpaceOnUse" y2="272.92316" x2="-28.859095" y1="174.78334" x1="-24.923763" id="linearGradient8746" xlink:href="#linearGradient8740" inkscape:collect="always"/>
    <linearGradient id="linearGradient8740">
      <stop id="stop8742" offset="0" style="stop-color: rgb(122, 168, 39); stop-opacity: 1;"/>
      <stop id="stop8744" offset="1" style="stop-color: rgb(163, 168, 39); stop-opacity: 0;"/>
    </linearGradient>
    <linearGradient id="linearGradient13291">
      <stop id="stop13293" offset="0" style="stop-color: rgb(179, 255, 75); stop-opacity: 1;"/>
      <stop style="stop-color: rgb(104, 160, 44); stop-opacity: 1;" offset="0.73758864" id="stop15283"/>
      <stop id="stop13295" offset="1" style="stop-color: rgb(60, 99, 32); stop-opacity: 1;"/>
    </linearGradient>
    <linearGradient id="linearGradient13303" inkscape:collect="always">
      <stop id="stop13305" offset="0" style="stop-color: rgb(255, 255, 255); stop-opacity: 1;"/>
      <stop id="stop13307" offset="1" style="stop-color: rgb(255, 255, 255); stop-opacity: 0;"/>
    </linearGradient>
    <linearGradient id="linearGradient15314">
      <stop style="stop-color: rgb(29, 51, 0); stop-opacity: 1;" offset="0" id="stop15316"/>
      <stop id="stop15318" offset="0.49645391" style="stop-color: rgb(104, 160, 44); stop-opacity: 0.236842;"/>
      <stop style="stop-color: rgb(97, 163, 52); stop-opacity: 0;" offset="1" id="stop15320"/>
    </linearGradient>
    <linearGradient id="linearGradient30593" inkscape:collect="always">
      <stop id="stop30595" offset="0" style="stop-color: rgb(0, 0, 0); stop-opacity: 1;"/>
      <stop id="stop30597" offset="1" style="stop-color: rgb(0, 0, 0); stop-opacity: 0;"/>
    </linearGradient>
    <pattern patternTransform="matrix(0.589994, 0, 0, 0.413556, 162.616, -160.559)" id="pattern30609" xlink:href="#pattern26663" inkscape:collect="always"/>
    <pattern patternTransform="matrix(0.589994, 0, 0, 0.413556, 1.72435, 5.43911)" id="pattern30614" xlink:href="#pattern30609" inkscape:collect="always"/>
    <linearGradient id="linearGradient33714">
      <stop id="stop33716" offset="0" style="stop-color: rgb(0, 0, 0); stop-opacity: 1;"/>
      <stop id="stop33718" offset="1" style="stop-color: rgb(0, 0, 0); stop-opacity: 0;"/>
    </linearGradient>
    <linearGradient inkscape:collect="always" xlink:href="#linearGradient8740" id="linearGradient3593" gradientUnits="userSpaceOnUse" x1="-24.923763" y1="174.78334" x2="-28.859095" y2="272.92316"/>
    <linearGradient inkscape:collect="always" xlink:href="#linearGradient13303" id="linearGradient3595" gradientUnits="userSpaceOnUse" x1="-47.223972" y1="206.26599" x2="-51.159306" y2="295.46683"/>
    <linearGradient inkscape:collect="always" xlink:href="#linearGradient30593" id="linearGradient3601" gradientUnits="userSpaceOnUse" gradientTransform="translate(-0.134796, -0.808775)" x1="211.02544" y1="147.26143" x2="243.94995" y2="109.28474"/>
    <linearGradient inkscape:collect="always" xlink:href="#linearGradient13303" id="linearGradient3622" gradientUnits="userSpaceOnUse" x1="-47.223972" y1="206.26599" x2="-51.159306" y2="295.46683"/>
    <linearGradient inkscape:collect="always" xlink:href="#linearGradient8740" id="linearGradient3629" gradientUnits="userSpaceOnUse" x1="-24.923763" y1="174.78334" x2="-28.859095" y2="272.92316"/>
    <filter inkscape:collect="always" x="-0.1174151" width="1.2348301" y="-0.16870084" height="1.3374017" id="filter6620">
      <feGaussianBlur inkscape:collect="always" stdDeviation="15.770927" id="feGaussianBlur6622"/>
    </filter>
    <filter inkscape:collect="always" x="-0.14204505" width="1.28409" y="-0.26362178" height="1.5272435" id="filter6716">
      <feGaussianBlur inkscape:collect="always" stdDeviation="14.129591" id="feGaussianBlur6718"/>
    </filter>
    <linearGradient inkscape:collect="always" xlink:href="#linearGradient8731" id="linearGradient8737" x1="269.87851" y1="202.21208" x2="281.47363" y2="314.4603" gradientUnits="userSpaceOnUse"/>
    <filter inkscape:collect="always" id="filter8819">
      <feGaussianBlur inkscape:collect="always" stdDeviation="3.1642301" id="feGaussianBlur8821"/>
    </filter>
    <radialGradient inkscape:collect="always" xlink:href="#linearGradient9792" id="radialGradient9798" cx="280.11124" cy="246.39078" fx="280.11124" fy="246.39078" r="134.32591" gradientTransform="matrix(0.00670045, -0.469773, 1.03827, 0.014809, 73.6991, 392.572)" gradientUnits="userSpaceOnUse"/>
    <clipPath clipPathUnits="userSpaceOnUse" id="clipPath9802">
      <path sodipodi:nodetypes="csssssc" id="path9804" d="M 261.12813,178.47315 C 261.12813,178.47315 222.55238,197.76102 210.68292,266.01042 C 205.09017,298.16874 212.29526,346.91452 241.84025,366.90084 C 292.28546,401.02554 354.60013,423.28078 394.65956,402.50922 C 434.71899,381.73766 514.06707,288.97976 458.45791,208.1468 C 424.33321,158.54345 406.52902,153.25055 360.53486,148.7995 C 314.5407,144.34845 262.61182,178.47315 261.12813,178.47315 z " style="fill: url(#radialGradient9806) rgb(0, 0, 0); fill-opacity: 1; fill-rule: evenodd; stroke: none; stroke-width: 1px; stroke-linecap: butt; stroke-linejoin: miter; stroke-opacity: 1;"/>
    </clipPath>
    <radialGradient inkscape:collect="always" xlink:href="#linearGradient9792" id="radialGradient9806" gradientUnits="userSpaceOnUse" gradientTransform="matrix(0.00670045, -0.469773, 1.03827, 0.014809, 73.6991, 392.572)" cx="280.11124" cy="246.39078" fx="280.11124" fy="246.39078" r="134.32591"/>
    <clipPath clipPathUnits="userSpaceOnUse" id="clipPath9808">
      <path sodipodi:nodetypes="csssssc" id="path9810" d="M 261.12813,178.47315 C 261.12813,178.47315 222.55238,197.76102 210.68292,266.01042 C 205.09017,298.16874 212.29526,346.91452 241.84025,366.90084 C 292.28546,401.02554 354.60013,423.28078 394.65956,402.50922 C 434.71899,381.73766 514.06707,288.97976 458.45791,208.1468 C 424.33321,158.54345 406.52902,153.25055 360.53486,148.7995 C 314.5407,144.34845 262.61182,178.47315 261.12813,178.47315 z " style="fill: url(#radialGradient9812) rgb(0, 0, 0); fill-opacity: 1; fill-rule: evenodd; stroke: none; stroke-width: 1px; stroke-linecap: butt; stroke-linejoin: miter; stroke-opacity: 1;"/>
    </clipPath>
    <radialGradient inkscape:collect="always" xlink:href="#linearGradient9792" id="radialGradient9812" gradientUnits="userSpaceOnUse" gradientTransform="matrix(0.00670045, -0.469773, 1.03827, 0.014809, 73.6991, 392.572)" cx="280.11124" cy="246.39078" fx="280.11124" fy="246.39078" r="134.32591"/>
    <clipPath clipPathUnits="userSpaceOnUse" id="clipPath9814">
      <path sodipodi:nodetypes="csssssc" id="path9816" d="M 261.12813,178.47315 C 261.12813,178.47315 222.55238,197.76102 210.68292,266.01042 C 205.09017,298.16874 212.29526,346.91452 241.84025,366.90084 C 292.28546,401.02554 354.60013,423.28078 394.65956,402.50922 C 434.71899,381.73766 514.06707,288.97976 458.45791,208.1468 C 424.33321,158.54345 406.52902,153.25055 360.53486,148.7995 C 314.5407,144.34845 262.61182,178.47315 261.12813,178.47315 z " style="fill: url(#radialGradient9818) rgb(0, 0, 0); fill-opacity: 1; fill-rule: evenodd; stroke: none; stroke-width: 1px; stroke-linecap: butt; stroke-linejoin: miter; stroke-opacity: 1;"/>
    </clipPath>
    <radialGradient inkscape:collect="always" xlink:href="#linearGradient9792" id="radialGradient9818" gradientUnits="userSpaceOnUse" gradientTransform="matrix(0.00670045, -0.469773, 1.03827, 0.014809, 73.6991, 392.572)" cx="280.11124" cy="246.39078" fx="280.11124" fy="246.39078" r="134.32591"/>
    <clipPath clipPathUnits="userSpaceOnUse" id="clipPath9820">
      <path sodipodi:nodetypes="csssssc" id="path9822" d="M 261.12813,178.47315 C 261.12813,178.47315 222.55238,197.76102 210.68292,266.01042 C 205.09017,298.16874 212.29526,346.91452 241.84025,366.90084 C 292.28546,401.02554 354.60013,423.28078 394.65956,402.50922 C 434.71899,381.73766 514.06707,288.97976 458.45791,208.1468 C 424.33321,158.54345 406.52902,153.25055 360.53486,148.7995 C 314.5407,144.34845 262.61182,178.47315 261.12813,178.47315 z " style="fill: url(#radialGradient9824) rgb(0, 0, 0); fill-opacity: 1; fill-rule: evenodd; stroke: none; stroke-width: 1px; stroke-linecap: butt; stroke-linejoin: miter; stroke-opacity: 1;"/>
    </clipPath>
    <radialGradient inkscape:collect="always" xlink:href="#linearGradient9792" id="radialGradient9824" gradientUnits="userSpaceOnUse" gradientTransform="matrix(0.00670045, -0.469773, 1.03827, 0.014809, 73.6991, 392.572)" cx="280.11124" cy="246.39078" fx="280.11124" fy="246.39078" r="134.32591"/>
    <filter inkscape:collect="always" id="filter9858">
      <feGaussianBlur inkscape:collect="always" stdDeviation="3.9192257" id="feGaussianBlur9860"/>
    </filter>
    <filter inkscape:collect="always" x="-0.17392971" width="1.3478594" y="-0.29319581" height="1.5863916" id="filter19027">
      <feGaussianBlur inkscape:collect="always" stdDeviation="6.4305314" id="feGaussianBlur19029"/>
    </filter>
    <filter inkscape:collect="always" id="filter20010">
      <feGaussianBlur inkscape:collect="always" stdDeviation="0.085324878" id="feGaussianBlur20012"/>
    </filter>
    <radialGradient inkscape:collect="always" xlink:href="#linearGradient30593" id="radialGradient22023" cx="325.95416" cy="195.24698" fx="325.95416" fy="195.24698" r="105.4082" gradientTransform="matrix(1.07029, -0.00959067, 0.00374566, 0.611178, -23.6425, 78.3994)" gradientUnits="userSpaceOnUse"/>
    <radialGradient inkscape:collect="always" xlink:href="#linearGradient20022" id="radialGradient22028" gradientUnits="userSpaceOnUse" gradientTransform="matrix(1.00892e-06, -2.8131, 1.35971, 1.10169e-06, 239.977, 832.44)" cx="271.90884" cy="-61.018017" fx="271.90884" fy="-61.018017" r="8.8654509"/>
    <radialGradient inkscape:collect="always" xlink:href="#linearGradient13882" id="radialGradient22034" gradientUnits="userSpaceOnUse" gradientTransform="matrix(-0.013732, 0.247233, -0.589179, -0.0292979, 130.508, 11.5607)" spreadMethod="reflect" cx="197.74216" cy="-53.954494" fx="197.74216" fy="-53.954494" r="105.8082"/>
    <radialGradient inkscape:collect="always" xlink:href="#linearGradient9792" id="radialGradient23025" gradientUnits="userSpaceOnUse" gradientTransform="matrix(0.00670045, -0.469773, 1.03827, 0.014809, 73.6991, 392.572)" cx="280.11124" cy="246.39078" fx="280.11124" fy="246.39078" r="134.32591"/>
    <linearGradient inkscape:collect="always" xlink:href="#linearGradient8731" id="linearGradient23027" gradientUnits="userSpaceOnUse" x1="269.87851" y1="202.21208" x2="281.47363" y2="314.4603"/>
  </defs>
  <sodipodi:namedview id="base" pagecolor="#ffffff" bordercolor="#666666" borderopacity="1.0" inkscape:pageopacity="0.0" inkscape:pageshadow="2" inkscape:zoom="1.4301848" inkscape:cx="158.30252" inkscape:cy="166.06245" inkscape:document-units="px" inkscape:current-layer="layer1" inkscape:window-width="1020" inkscape:window-height="694" inkscape:window-x="0" inkscape:window-y="24" inkscape:showpageshadow="false"/>
  <metadata id="metadata7">
    <rdf:RDF>
      <cc:Work rdf:about="">
        <dc:format>image/svg+xml</dc:format>
        <dc:type rdf:resource="http://purl.org/dc/dcmitype/StillImage"/>
      </cc:Work>
    </rdf:RDF>
  </metadata>
  <g inkscape:label="Ebene 1" inkscape:groupmode="layer" id="layer1" transform="translate(-3.10397, 2.98798)">
    <g id="g23029">
      <path transform="matrix(0.887834, 0, 0, 3.26726, -83.2622, -852.044)" d="M 411.79872 322.43326 A 133.36339 16.563332 0 1 1  145.07195,322.43326 A 133.36339 16.563332 0 1 1  411.79872 322.43326 z" sodipodi:ry="16.563332" sodipodi:rx="133.36339" sodipodi:cy="322.43326" sodipodi:cx="278.43533" id="path32567" style="overflow: visible; marker: none; opacity: 0.676923; color: rgb(0, 0, 0); fill: rgb(77, 77, 77); fill-opacity: 1; fill-rule: evenodd; stroke: none; stroke-width: 1.58397px; stroke-linecap: butt; stroke-linejoin: miter; stroke-miterlimit: 4; stroke-dasharray: none; stroke-dashoffset: 0pt; stroke-opacity: 1; visibility: visible; display: inline; filter: url(#filter38751);" sodipodi:type="arc"/>
      <path transform="matrix(0.914827, 0, 0, 1.9015, -39.7756, -375.927)" d="M 304.26598 314.99686 A 82.429848 11.747722 0 1 1  139.40629,314.99686 A 82.429848 11.747722 0 1 1  304.26598 314.99686 z" sodipodi:ry="11.747722" sodipodi:rx="82.429848" sodipodi:cy="314.99686" sodipodi:cx="221.83614" id="path34711" style="overflow: visible; marker: none; color: rgb(0, 0, 0); fill: rgb(0, 0, 0); fill-opacity: 0.95339; fill-rule: evenodd; stroke: none; stroke-width: 1.58397px; stroke-linecap: butt; stroke-linejoin: miter; stroke-miterlimit: 4; stroke-dasharray: none; stroke-dashoffset: 0pt; stroke-opacity: 1; visibility: visible; display: inline; filter: url(#filter35726);" sodipodi:type="arc"/>
      <g transform="matrix(0.847287, 0, 0, 0.801693, -135.713, -88.6801)" id="g9826">
        <path style="fill: url(#radialGradient23025) rgb(0, 0, 0); fill-opacity: 1; fill-rule: evenodd; stroke: none; stroke-width: 1px; stroke-linecap: butt; stroke-linejoin: miter; stroke-opacity: 1;" d="M 261.12813,178.47315 C 261.12813,178.47315 222.55238,197.76102 210.68292,266.01042 C 205.09017,298.16874 212.29526,346.91452 241.84025,366.90084 C 292.28546,401.02554 354.60013,423.28078 394.65956,402.50922 C 434.71899,381.73766 514.06707,288.97976 458.45791,208.1468 C 424.33321,158.54345 406.52902,153.25055 360.53486,148.7995 C 314.5407,144.34845 262.61182,178.47315 261.12813,178.47315 z " id="path3632" sodipodi:nodetypes="csssssc" clip-path="url(#clipPath9820)"/>
        <path style="opacity: 0.630769; fill: rgb(255, 246, 213); fill-rule: evenodd; stroke: none; stroke-width: 1px; stroke-linecap: butt; stroke-linejoin: miter; stroke-opacity: 1; filter: url(#filter6716);" d="M 275.96496,185.89156 C 271.76608,187.56781 262.65357,195.87511 258.16077,199.24471 C 252.17626,203.73309 247.88645,207.70095 246.29131,214.08153 C 244.33718,221.89803 243.26885,227.65502 241.84026,233.36941 C 240.51078,238.68731 249.5845,244.20756 253.70972,245.23887 C 260.98238,247.05703 270.22555,245.2877 275.96496,246.72255 C 284.01348,248.73468 285.16948,255.62465 295.25283,255.62465 C 304.37779,255.62465 310.55585,255.85774 316.02439,258.59201 C 321.67499,261.41731 326.62559,266.85998 330.86121,268.97779 C 337.81466,272.45451 340.36927,274.69309 347.18172,276.3962 C 354.70959,278.27817 362.29127,277.57714 369.43696,279.36357 C 381.00575,282.25576 380.71619,272.82239 382.7901,264.52674 C 383.30807,262.45487 398.21024,253.55765 399.11061,252.65728 C 403.48293,248.28496 411.18314,249.68992 418.39848,249.68992 C 428.47864,249.68992 429.67801,246.02545 434.71899,239.30414 C 438.65412,234.05731 440.65372,225.142 440.65372,218.53258 C 440.65372,208.63928 434.48654,206.43067 428.78426,200.72839 C 424.0417,195.98583 419.54245,191.48658 415.43112,187.37525 C 409.46779,181.41192 403.82246,177.984 397.62693,175.50579 C 388.31646,171.7816 384.27378,170.07966 384.27378,181.44052 C 384.27378,190.02929 387.24115,191.18404 387.24115,200.72839 C 387.24115,209.84332 386.23878,214.08153 376.85537,214.08153 C 369.23039,214.08153 361.28405,217.41615 356.08382,220.01626 C 349.73002,223.19316 333.38116,221.49995 326.41016,221.49995 C 316.47902,221.49995 302.93358,221.93645 295.25283,220.01626 C 291.94462,219.18921 283.9034,204.29219 283.38337,202.21207 C 281.70104,195.48276 275.96496,199.93637 275.96496,185.89156 z " id="path4603" clip-path="url(#clipPath9814)"/>
        <path style="fill: rgb(128, 0, 0); fill-rule: evenodd; stroke: none; stroke-width: 1px; stroke-linecap: butt; stroke-linejoin: miter; stroke-opacity: 1; filter: url(#filter6620);" d="M 467.40624,232.46458 C 466.536,250.1506 469.22633,268.20684 465.57933,285.6314 C 461.58294,296.31392 460.17629,311.47583 446.97901,314.30735 C 436.14988,322.74844 423.24636,328.87211 414.96713,340.16437 C 405.35866,350.19077 395.19279,360.16039 382.01543,365.09691 C 368.3536,366.68293 360.66963,382.96212 346.40996,381.15941 C 336.30491,373.3153 317.93694,373.59642 305.40018,372.02418 C 291.30674,372.85211 292.82657,354.81483 283.39781,348.41031 C 272.02866,338.84181 256.96206,341.72799 243.94098,337.56313 C 230.86368,330.90187 225.1831,316.10508 216.76353,304.78165 C 212.47118,297.48664 207.63176,281.69685 209.03483,298.14478 C 209.47405,324.65486 216.32477,353.50794 236.85866,371.75253 C 260.26916,389.69454 287.22578,402.8933 315.15708,412.18963 C 343.11249,421.05147 376.15986,424.20764 401.78427,407.16137 C 427.80916,389.53764 448.36713,364.25645 462.63334,336.38743 C 478.8937,304.46775 483.75714,265.37879 467.40624,232.46458 z " id="path4605" sodipodi:nodetypes="cccccccccccccccc" clip-path="url(#clipPath9808)"/>
        <path id="path7691" style="overflow: visible; marker: none; opacity: 0.615385; color: rgb(0, 0, 0); fill: url(#linearGradient23027) rgb(0, 0, 0); fill-opacity: 1; fill-rule: evenodd; stroke: none; stroke-width: 1px; stroke-linecap: butt; stroke-linejoin: miter; stroke-miterlimit: 4; stroke-dasharray: none; stroke-dashoffset: 0pt; stroke-opacity: 1; visibility: visible; display: inline; filter: url(#filter8819);" d="M 262.61181,224.46731 C 262.11725,225.45643 261.62269,226.44556 261.12813,227.43468 C 249.05096,251.58903 246.29131,236.87978 246.29131,266.01043 C 245.10025,268.39255 257.17165,273.9234 259.64445,274.91252 C 258.23059,277.74025 295.55134,277.88431 281.89969,243.75518 C 277.0514,231.63447 273.28335,229.80308 262.61181,224.46731 z M 295.25283,243.75518 C 294.85679,242.76509 305.40406,263.2776 287.83442,280.84725 C 286.16672,282.51495 314.83039,286.18498 333.82858,295.68407 C 368.46337,313.00147 372.21744,268.4667 353.11645,254.14096 C 347.22761,249.72433 304.79522,243.75518 295.25283,243.75518 z " sodipodi:nodetypes="csccsccsssc" clip-path="url(#clipPath9802)"/>
      </g>
      <path transform="matrix(0.847287, 0, 0, 0.663223, -133.424, -54.3062)" style="opacity: 0.95; fill: url(#radialGradient22023) rgb(0, 0, 0); fill-opacity: 1; fill-rule: evenodd; stroke: none; stroke-width: 1px; stroke-linecap: butt; stroke-linejoin: miter; stroke-opacity: 1; filter: url(#filter9858);" d="M 338.70945,204.58985 C 336.70088,204.18813 334.2906,195.75213 305.36717,196.95728 C 276.44375,198.16242 257.56318,209.41042 254.75118,215.03442 C 251.93918,220.65842 250.33233,228.6927 250.33233,228.6927 L 247.52033,230.70127 C 247.52033,230.70127 247.52033,220.2567 248.32376,218.24813 C 249.12719,216.23956 269.61461,194.14528 276.04204,190.12814 C 282.46946,186.11099 303.3586,184.50414 309.78603,188.11956 C 316.21346,191.73499 328.6666,192.53842 328.6666,192.53842 C 328.6666,192.53842 330.67517,182.09385 311.7946,170.44414 C 292.91403,158.79443 282.46946,151.96529 275.23861,154.37557 C 268.00775,156.78586 257.56318,165.62357 259.17004,168.03385 C 260.7769,170.44414 260.7769,160.40128 260.7769,160.40128 L 276.44375,152.367 C 276.44375,152.367 293.71746,149.15329 306.1706,156.78586 C 318.62374,164.41843 345.94032,178.88014 345.94032,178.88014 C 345.94032,178.88014 352.36775,166.02528 355.58146,161.60643 C 358.79517,157.18757 367.63289,133.08472 373.6586,130.67443 C 379.68431,128.26415 385.71003,129.46929 385.71003,129.46929 L 383.29974,134.28986 L 385.30831,136.29843 L 381.29117,136.29843 C 381.29117,136.29843 380.08603,138.307 376.4706,147.94814 C 372.85517,157.58928 369.23974,176.87157 369.23974,179.68357 C 369.23974,182.49557 368.83803,184.90585 368.83803,184.90585 C 368.83803,184.90585 381.29117,182.09385 389.72717,179.68357 C 398.16317,177.27328 410.61631,172.45271 415.83859,172.85442 C 421.06088,173.25614 432.30887,172.45271 437.12943,174.46128 C 441.95,176.46985 447.574,175.26471 451.18943,181.69214 C 454.80486,188.11956 459.62543,202.98299 458.01857,204.58985 C 456.41172,206.1967 454.80486,190.52985 447.574,186.91442 C 440.34315,183.29899 432.71058,179.28185 421.8643,180.88871 C 411.01802,182.49557 425.47973,179.28185 407.00088,185.30757 C 388.52202,191.33328 369.64146,198.56413 369.64146,198.56413 C 369.64146,198.56413 380.08603,212.22242 382.49631,215.03442 C 384.9066,217.84642 396.55631,235.12013 397.76145,239.9407 C 398.96659,244.76127 397.76145,258.01784 397.76145,258.01784 C 397.76145,258.01784 398.96659,239.9407 394.54774,236.32527 C 390.12888,232.70984 384.50488,221.06013 376.4706,216.64127 C 368.43631,212.22242 360.40203,200.5727 355.98317,201.77785 C 351.56432,202.98299 350.35918,206.59842 346.34203,205.79499 C 342.32489,204.99156 337.50431,203.78642 338.70945,204.58985 z " id="path9832"/>
      <path style="fill: url(#radialGradient22034) rgb(0, 0, 0); fill-opacity: 1; fill-rule: evenodd; stroke: rgb(141, 113, 0); stroke-width: 0.247252; stroke-linecap: butt; stroke-linejoin: miter; stroke-miterlimit: 4; stroke-dasharray: none; stroke-opacity: 0.618644;" d="M 147.53335,77.66564 C 145.83152,77.343582 143.78932,70.580504 119.28288,71.546658 C 94.776436,72.512812 78.779177,81.530264 76.396604,86.038986 C 74.01403,90.547708 72.65257,96.988738 72.65257,96.988738 L 70.269996,98.598998 C 70.269996,98.598998 70.269996,90.22565 70.950732,88.615391 C 71.631467,87.00514 88.990196,69.292302 94.436068,66.071783 C 99.88194,62.851263 117.58104,61.563061 123.02692,64.461523 C 128.47279,67.359985 139.02418,68.004091 139.02418,68.004091 C 139.02418,68.004091 140.72601,59.630753 124.72875,50.291252 C 108.73149,40.951761 99.88194,35.476885 93.755333,37.409193 C 87.628726,39.341501 78.779177,46.426636 80.140648,48.358944 C 81.502118,50.291252 81.502118,42.239963 81.502118,42.239963 L 94.776436,35.798934 C 94.776436,35.798934 109.41222,33.22252 119.96361,39.341501 C 130.51499,45.460482 153.65998,57.054339 153.65998,57.054339 C 153.65998,57.054339 159.10585,46.748685 161.82879,43.206126 C 164.55172,39.663549 172.03981,20.340461 177.14531,18.408144 C 182.25082,16.475836 187.35633,17.44199 187.35633,17.44199 L 187.23762,19.668626 L 188.55476,24.918853 L 183.61229,22.916865 C 183.61229,22.916865 182.59119,24.527125 179.52789,32.256366 C 176.46458,39.985598 173.40127,55.44408 173.40127,57.698445 C 173.40127,59.952801 173.0609,61.885109 173.0609,61.885109 C 173.0609,61.885109 183.61229,59.630753 190.76,57.698445 C 197.90772,55.766128 208.4591,51.901512 212.88386,52.22356 C 217.30864,52.545618 226.83892,51.901512 230.92333,53.511772 C 235.00773,55.122022 239.77288,54.155877 242.83619,59.308705 C 245.89949,64.461523 249.9839,76.377437 248.62243,77.66564 C 247.26097,78.953842 245.89949,66.393831 239.77288,63.495369 C 233.64627,60.596898 227.1793,57.376388 217.98937,58.664599 C 208.79946,59.952801 221.05268,57.376388 205.3958,62.207167 C 189.7389,67.037937 173.74164,72.834861 173.74164,72.834861 C 173.74164,72.834861 182.59119,83.784621 184.63339,86.038986 C 186.6756,88.293342 196.54625,102.14157 197.56734,106.00618 C 198.58844,109.8708 197.56734,120.49851 197.56734,120.49851 C 197.56734,120.49851 198.58844,106.00618 194.84441,103.10772 C 191.10037,100.20925 186.33522,90.869756 179.52789,87.327188 C 172.72053,83.784621 165.91319,74.44512 162.16915,75.411283 C 158.42511,76.377437 157.40402,79.275899 154.00033,78.631794 C 150.59667,77.987688 146.51226,77.021534 147.53335,77.66564 z " id="path9862" sodipodi:nodetypes="cssccssscsssccscssccccsscsssssssscsscssssc"/>
      <path id="path12881" d="M 152.06123,66.508514 L 152.06123,66.508514 z " style="fill: none; fill-rule: evenodd; stroke: rgb(0, 0, 0); stroke-width: 0.824175px; stroke-linecap: butt; stroke-linejoin: miter; stroke-opacity: 1;"/>
      <path sodipodi:nodetypes="csccsssccsscsccsssc" d="M 180.88332,17.630899 C 180.88332,17.630899 181.71355,17.40932 178.00701,21.354795 C 174.30047,25.300261 162.94918,55.329683 159.93762,62.563048 C 152.52455,66.94691 152.52455,66.94691 152.52455,66.94691 C 154.14616,66.94691 168.04568,69.138827 173.60549,67.385288 C 179.16531,65.631749 199.55126,57.302421 211.59752,56.206448 C 223.64377,55.110494 232.91012,54.014531 237.07999,57.302421 C 241.24984,60.59031 245.65136,65.850947 245.65136,65.850947 M 101.32797,35.383138 C 101.32797,35.383138 116.61744,41.520539 124.03053,45.904392 C 131.4436,50.288245 146.0381,61.467085 148.58636,64.097398 C 151.1346,66.727712 151.59792,66.94691 151.59792,66.94691 C 151.59792,66.94691 165.03411,65.412551 167.58237,69.577224 C 170.13062,73.741879 184.03013,88.208617 184.03013,88.208617 M 152.52455,67.166099 C 152.52455,67.166099 151.59792,68.700449 143.95317,69.577224 C 136.30844,70.453998 129.82199,67.823675 119.629,67.166099 C 109.43603,66.508514 99.938017,68.042873 95.5365,70.015602 C 91.134983,71.988339 74.687205,81.852017 74.687205,84.48234" style="opacity: 0.730769; fill: none; fill-rule: evenodd; stroke: rgb(82, 147, 48); stroke-width: 0.32967; stroke-linecap: butt; stroke-linejoin: miter; stroke-miterlimit: 4; stroke-dasharray: none; stroke-opacity: 1;" id="path12883"/>
      <path transform="matrix(0.387742, 0, 0, 0.297772, 151.382, 125.808)" d="M 52.011474 -198.41977 A 36.972012 21.932549 0 1 1  -21.932549,-198.41977 A 36.972012 21.932549 0 1 1  52.011474 -198.41977 z" sodipodi:ry="21.932549" sodipodi:rx="36.972012" sodipodi:cy="-198.41977" sodipodi:cx="15.039462" id="path17776" style="overflow: visible; marker: none; color: rgb(0, 0, 0); fill: rgb(7, 31, 5); fill-opacity: 1; fill-rule: evenodd; stroke: none; stroke-width: 0.4; stroke-linecap: butt; stroke-linejoin: miter; stroke-miterlimit: 4; stroke-dasharray: none; stroke-dashoffset: 0pt; stroke-opacity: 0.618644; visibility: visible; display: inline; filter: url(#filter19027);" sodipodi:type="arc"/>
      <path sodipodi:nodetypes="ccssscc" id="path2226" d="M 150.2285,33.642549 L 149.54776,64.559504 C 149.54776,64.559504 148.86703,68.102072 152.61107,68.42412 C 156.3551,68.746178 160.79694,70.182448 162.49877,68.25014 C 164.2006,66.317823 165.52129,68.414928 163.50282,56.830263 C 159.79829,35.568664 159.75878,32.998453 159.75878,32.998453 L 150.2285,33.642549 z " style="fill: url(#radialGradient22028) rgb(0, 0, 0); fill-opacity: 1; fill-rule: evenodd; stroke: none; stroke-width: 1px; stroke-linecap: butt; stroke-linejoin: miter; stroke-opacity: 1;"/>
      <path transform="matrix(0.847287, 0, 0, 0.801693, -135.713, -88.6801)" id="path19031" d="M 338.83036,153.4264 C 338.83036,153.4264 338.51704,188.51848 338.83036,191.33838 C 339.14368,194.15828 340.71029,194.4716 340.71029,194.4716 C 340.71029,194.4716 342.27691,180.99875 341.96358,170.65912 C 341.65026,160.31949 338.83036,153.11308 338.83036,153.4264 z " style="opacity: 0.469231; fill: rgb(226, 227, 219); fill-rule: evenodd; stroke: none; stroke-width: 1px; stroke-linecap: butt; stroke-linejoin: miter; stroke-opacity: 1; filter: url(#filter20010);"/>
      <path transform="matrix(0.890284, -0.0427419, 0.0475327, 0.800553, -77.7908, 111.593)" d="M 271.34799 -83.379593 A 5.4573312 1.3761965 0 1 1  260.43332,-83.379593 A 5.4573312 1.3761965 0 1 1  271.34799 -83.379593 z" sodipodi:ry="1.3761965" sodipodi:rx="5.4573312" sodipodi:cy="-83.379593" sodipodi:cx="265.89066" id="path20030" style="overflow: visible; marker: none; color: rgb(0, 0, 0); fill: rgb(137, 160, 44); fill-opacity: 1; fill-rule: evenodd; stroke: none; stroke-width: 0.4; stroke-linecap: butt; stroke-linejoin: miter; stroke-miterlimit: 4; stroke-dasharray: none; stroke-dashoffset: 0pt; stroke-opacity: 0.618644; visibility: visible; display: inline;" sodipodi:type="arc"/>
    </g>
  </g>
</svg>