<?xml version="1.0" encoding="UTF-8" standalone="no"?>
<!-- Created with Inkscape (http://www.inkscape.org/) -->
<svg xmlns:dc="http://purl.org/dc/elements/1.1/" xmlns:cc="http://web.resource.org/cc/" xmlns:rdf="http://www.w3.org/1999/02/22-rdf-syntax-ns#" xmlns:svg="http://www.w3.org/2000/svg" xmlns="http://www.w3.org/2000/svg" xmlns:xlink="http://www.w3.org/1999/xlink" xmlns:sodipodi="http://sodipodi.sourceforge.net/DTD/sodipodi-0.dtd" xmlns:inkscape="http://www.inkscape.org/namespaces/inkscape" id="svg1" sodipodi:version="0.32" inkscape:version="0.45.1" width="128" height="128" sodipodi:docbase="/home/nicu/Desktop/svg" sodipodi:docname="white_cake.svg" inkscape:output_extension="org.inkscape.output.svg.inkscape" version="1.0">
  <metadata id="metadata76"/>
  <defs id="defs3">
    <linearGradient id="linearGradient5594">
      <stop style="stop-color: rgb(255, 0, 0); stop-opacity: 1;" offset="0" id="stop5596"/>
      <stop style="stop-color: rgb(222, 0, 0); stop-opacity: 1;" offset="1" id="stop5598"/>
    </linearGradient>
    <linearGradient id="linearGradient5584">
      <stop style="stop-color: rgb(244, 244, 71); stop-opacity: 1;" offset="0" id="stop5586"/>
      <stop id="stop5592" offset="0.5" style="stop-color: rgb(251, 251, 181); stop-opacity: 1;"/>
      <stop style="stop-color: rgb(244, 244, 71); stop-opacity: 1;" offset="1" id="stop5588"/>
    </linearGradient>
    <linearGradient id="linearGradient5576">
      <stop style="stop-color: rgb(236, 221, 174); stop-opacity: 1;" offset="0" id="stop5578"/>
      <stop style="stop-color: rgb(248, 241, 222); stop-opacity: 1;" offset="1" id="stop5580"/>
    </linearGradient>
    <linearGradient id="linearGradient5568">
      <stop style="stop-color: rgb(255, 255, 215); stop-opacity: 1;" offset="0" id="stop5570"/>
      <stop style="stop-color: rgb(255, 255, 244); stop-opacity: 1;" offset="1" id="stop5572"/>
    </linearGradient>
    <linearGradient id="linearGradient5556">
      <stop style="stop-color: rgb(255, 255, 255); stop-opacity: 1;" offset="0" id="stop5558"/>
      <stop style="stop-color: rgb(245, 255, 255); stop-opacity: 1;" offset="1" id="stop5560"/>
    </linearGradient>
    <linearGradient id="linearGradient930">
      <stop style="stop-color: rgb(0, 0, 0); stop-opacity: 1;" offset="0" id="stop931"/>
      <stop style="stop-color: rgb(255, 255, 255); stop-opacity: 1;" offset="1" id="stop932"/>
    </linearGradient>
    <linearGradient xlink:href="#linearGradient930" id="linearGradient933"/>
    <linearGradient inkscape:collect="always" xlink:href="#linearGradient5556" id="linearGradient5562" x1="57.03125" y1="30.208334" x2="57.8125" y2="53.527287" gradientUnits="userSpaceOnUse" gradientTransform="matrix(0.815871, 0, 0, 0.815871, 0.553586, -1.46913)"/>
    <linearGradient inkscape:collect="always" xlink:href="#linearGradient5556" id="linearGradient5564" x1="57.457668" y1="35.79911" x2="83.554253" y2="49.08036" gradientUnits="userSpaceOnUse" gradientTransform="matrix(0.815871, 0, 0, 0.815871, 0.553586, -1.46913)"/>
    <linearGradient inkscape:collect="always" xlink:href="#linearGradient5556" id="linearGradient5566" x1="86.350319" y1="69.852486" x2="131.70337" y2="39.904568" gradientUnits="userSpaceOnUse" gradientTransform="matrix(0.815871, 0, 0, 0.815871, 0.553586, -1.46913)"/>
    <linearGradient inkscape:collect="always" xlink:href="#linearGradient5568" id="linearGradient5574" x1="26.041666" y1="92.1875" x2="124.21875" y2="83.854164" gradientUnits="userSpaceOnUse" gradientTransform="matrix(0.815871, 0, 0, 0.815871, 0.553586, -1.46913)"/>
    <linearGradient inkscape:collect="always" xlink:href="#linearGradient5576" id="linearGradient5582" x1="43.229168" y1="116.40624" x2="120.05209" y2="109.89584" gradientUnits="userSpaceOnUse" gradientTransform="matrix(0.815871, 0, 0, 0.815871, 0.553586, -1.46913)"/>
    <linearGradient inkscape:collect="always" xlink:href="#linearGradient5584" id="linearGradient5590" x1="119.84726" y1="111.28457" x2="35.014271" y2="138.83363" gradientUnits="userSpaceOnUse" gradientTransform="matrix(0.815871, 0, 0, 0.815871, 0.553586, -1.46913)"/>
    <linearGradient inkscape:collect="always" xlink:href="#linearGradient5594" id="linearGradient5600" x1="67.447922" y1="27.083334" x2="77.773308" y2="34.635418" gradientUnits="userSpaceOnUse" gradientTransform="matrix(0.815871, 0, 0, 0.815871, 0.553586, -1.46913)"/>
    <filter inkscape:collect="always" x="-0.25784048" width="1.515681" y="-0.28817463" height="1.5763493" id="filter7673">
      <feGaussianBlur inkscape:collect="always" stdDeviation="0.53157216" id="feGaussianBlur7675"/>
    </filter>
    <filter inkscape:collect="always" id="filter8690">
      <feGaussianBlur inkscape:collect="always" stdDeviation="1.5665327" id="feGaussianBlur8692"/>
    </filter>
    <filter inkscape:collect="always" id="filter3192">
      <feGaussianBlur inkscape:collect="always" stdDeviation="1.6149965" id="feGaussianBlur3194"/>
    </filter>
    <filter inkscape:collect="always" x="-0.079968004" width="1.159936" y="-0.22160456" height="1.4432091" id="filter4191">
      <feGaussianBlur inkscape:collect="always" stdDeviation="1.0366223" id="feGaussianBlur4193"/>
    </filter>
  </defs>
  <sodipodi:namedview id="base" pagecolor="#ffffff" bordercolor="#666666" borderopacity="1.0" inkscape:pageopacity="0.0" inkscape:pageshadow="2" inkscape:zoom="1" inkscape:cx="64" inkscape:cy="64" inkscape:window-width="1152" inkscape:window-height="791" inkscape:window-x="0" inkscape:window-y="24" inkscape:current-layer="svg1" width="128px" height="128px"/>
  <metadata id="metadata78">
    <rdf:RDF>
      <cc:Work rdf:about="">
        <dc:title>Clipart by Nicu Buculei - birthday_cake</dc:title>
        <dc:rights>
          <cc:Agent>
            <dc:title>Nicu Buculei</dc:title>
          </cc:Agent>
        </dc:rights>
        <dc:type rdf:resource="http://purl.org/dc/dcmitype/StillImage"/>
        <cc:license rdf:resource="http://web.resource.org/cc/PublicDomain"/>
        <dc:format>image/svg+xml</dc:format>
      </cc:Work>
      <cc:License rdf:about="http://web.resource.org/cc/PublicDomain">
        <cc:permits rdf:resource="http://web.resource.org/cc/Reproduction"/>
        <cc:permits rdf:resource="http://web.resource.org/cc/Distribution"/>
        <cc:permits rdf:resource="http://web.resource.org/cc/DerivativeWorks"/>
      </cc:License>
    </rdf:RDF>
  </metadata>
  <path style="fill: rgb(0, 0, 0); fill-opacity: 0.549738; fill-rule: evenodd; stroke: none; stroke-width: 1px; stroke-linecap: butt; stroke-linejoin: miter; stroke-opacity: 1; filter: url(#filter8690);" d="M 68.28125,26.9375 C 68.07409,26.932098 67.85438,26.953055 67.65625,26.96875 C 64.178096,27.244276 61.781064,30.376092 61.53125,33.53125 C 61.482112,33.532185 61.424326,33.529598 61.375,33.53125 C 57.586381,33.65824 54.00431,34.330051 52.5625,36.8125 C 52.687021,37.281528 52.896467,37.663343 53.15625,38.03125 C 51.962121,38.24935 50.75786,38.4375 49.65625,38.4375 C 47.399993,38.437501 44.554203,37.958185 42.15625,38.4375 C 37.67037,38.217901 33.716908,39.318231 29.46875,40.6875 C 23.91951,42.154243 23.119747,43.600592 23.375,49.6875 C 23.467688,51.207681 23.358963,52.349957 22.4375,53.25 C 19.086142,54.342485 16.735932,56.494618 15.0625,59.875 L 14.84375,60.125 L 14.8125,60.375 C 14.555546,60.935188 14.318387,61.531145 14.09375,62.15625 C 14.762558,67.453983 13.319572,72.248249 11.28125,76.84375 L 11.28125,76.9375 L 11.28125,77.03125 C 11.30122,82.67686 16.103782,86.617383 16,92.28125 C 17.559159,100.34019 16.903946,107.16097 16.65625,114.5625 C 14.265623,116.33102 12.064686,119.23374 10.09375,123.84375 L 10,124.0625 L 10.125,124.25 C 14.4017,132.68503 22.636573,136.59494 32.875,138 C 61.312895,137.7704 93.694269,138.63238 120.5,128.5 C 128.55944,122.20274 139.67126,118.60531 142.0625,108.21875 C 139.67734,104.07635 138.09665,99.057887 132.96875,98.625 L 132.9375,99.3125 C 132.63762,96.884517 131.83818,94.685974 131.09375,92.53125 C 130.78316,91.846693 130.54787,91.176384 130.34375,90.5 L 129.90625,88.75 C 128.98708,83.718466 130.58351,78.826636 131.9375,73.71875 C 134.86764,63.023788 128.09049,54.355054 122.40625,45.53125 L 122.375,45.5 L 122.34375,45.46875 C 119.71146,42.84918 118.08074,42.428811 116.15625,43.03125 C 115.60184,40.694059 109.348,37.656227 107.625,36.875 C 105.6951,36.025975 102.88126,38.041177 100.90625,37.5 C 96.57723,34.932266 91.600781,35.339839 86.9375,34.65625 C 84.697173,35.126107 82.695151,36.248395 80.40625,36.78125 C 80.172935,36.832621 79.977254,36.875341 79.8125,36.90625 C 78.62964,35.905469 77.341178,35.061879 75.96875,34.46875 C 75.735815,33.293452 75.10642,32.050549 73.9375,30.78125 C 72.403497,29.364402 71.099853,27.407667 68.90625,27 C 68.695486,26.976448 68.48841,26.942902 68.28125,26.9375 z M 108.34375,38.03125 C 109.27102,38.540167 110.03729,39.142211 110.75,39.78125 L 108.34375,38.03125 z M 107.9375,45.5625 C 108.63026,45.665592 109.34253,45.795971 110.03125,45.9375 L 110.21875,46.0625 C 110.1885,46.085005 110.1549,46.102288 110.125,46.125 L 107.9375,45.5625 z M 17.75,56.96875 L 16.59375,58.21875 C 16.910054,57.736104 17.308206,57.327584 17.75,56.96875 z M 16.90625,94 L 17.34375,98.6875 C 17.110141,97.127556 16.927403,95.56329 16.90625,94 z M 133.9375,99.65625 C 134.33833,99.737971 134.70833,99.889779 135.03125,100.0625 L 133.9375,99.65625 z " id="path5602" transform="matrix(0.865295, 0, 0, 0.865295, 0.136576, -2.6853)"/>
  <path style="fill: url(#linearGradient5590) rgb(0, 0, 0); fill-opacity: 1; fill-rule: evenodd; stroke: none; stroke-width: 1px; stroke-linecap: butt; stroke-linejoin: miter; stroke-opacity: 1;" d="M 9.244473,100.0254 L 8.2632441,102.96909 L 11.90781,107.73506 L 23.542385,113.76261 L 49.474873,113.76261 C 66.324317,114.16216 79.767006,110.66828 94.190896,108.29576 C 104.58251,105.40576 111.96193,100.75867 117.88056,95.25943 L 120.5439,88.951529 L 117.31987,82.503453 L 113.53513,81.101696 C 80.360234,85.493864 15.579924,81.692036 14.010444,94.2782" id="path3597" sodipodi:nodetypes="ccccccccccc"/>
  <path style="fill: url(#linearGradient5574) rgb(0, 0, 0); fill-opacity: 1; fill-rule: evenodd; stroke: none; stroke-width: 1px; stroke-linecap: butt; stroke-linejoin: miter; stroke-opacity: 1;" d="M 25.084317,90.913983 L 16.954132,63.019041 L 23.962912,42.553401 L 48.493644,36.105324 L 73.024375,32.600934 L 89.985625,34.142865 L 98.115804,36.245499 L 104.98441,58.112894 L 102.60142,83.344502 L 88.724043,88.110471 L 45.830307,92.59609 L 25.084317,90.913983 z " id="path3603"/>
  <path style="fill: rgb(0, 0, 0); fill-rule: evenodd; stroke: none; stroke-width: 1px; stroke-linecap: butt; stroke-linejoin: miter; stroke-opacity: 1; fill-opacity: 0.21875; filter: url(#filter4191);" d="M 18.222222,44 C 27.563461,41.473576 36.570701,39.28115 46.444445,36.222222 C 40.372252,42.11097 32.353893,42.062347 49.333334,46.222222 C 38.962963,49.157529 28.592593,46.181176 18.222222,44 z " id="path3196" sodipodi:nodetypes="cccc"/>
  <path style="fill: url(#linearGradient5582) rgb(0, 0, 0); fill-opacity: 1; fill-rule: evenodd; stroke: none; stroke-width: 1px; stroke-linecap: butt; stroke-linejoin: miter; stroke-opacity: 1;" d="M 24.944142,91.614863 L 28.028004,95.67996 C 32.040769,98.5498 36.44418,100.05239 41.204513,100.30575 L 67.697701,99.32453 L 94.190896,92.876437 L 103.863,86.288187 L 102.32108,82.503453 L 89.144576,86.989075 L 67.837877,91.054161 L 42.045565,90.773814 L 24.103088,89.091707 L 24.944142,91.614863 z " id="path3599" sodipodi:nodetypes="cccccccccccc"/>
  <path style="fill: url(#linearGradient5562) rgb(0, 0, 0); fill-opacity: 1; fill-rule: evenodd; stroke: none; stroke-width: 1px; stroke-linecap: butt; stroke-linejoin: miter; stroke-opacity: 1;" d="M 18.980109,42.080216 L 19.834319,33.660149 L 24.959577,30.36534 L 39.115051,28.656921 L 47.169028,28.656921 L 67.426001,28.046771 L 73.527498,25.728201 L 78.408696,25.850231 L 86.340644,28.046771 L 91.831991,27.680682 L 99.88597,33.538119 L 95.858986,36.100748 L 91.954014,33.904209 L 72.917348,33.904209 L 48.511357,36.222778 L 34.599942,40.127737 L 25.325667,42.202246 L 18.980109,42.080216 z " id="path4583"/>
  <path style="fill: url(#linearGradient5564) rgb(0, 0, 0); fill-opacity: 1; fill-rule: evenodd; stroke: none; stroke-width: 1px; stroke-linecap: butt; stroke-linejoin: miter; stroke-opacity: 1;" d="M 50.829928,32.43985 C 49.366298,35.007608 46.632724,37.495997 50.097747,40.371796 L 61.324502,42.080216 L 71.819078,37.687138 C 73.78641,32.881988 69.649907,30.25678 67.426001,26.948501 L 61.324502,24.019783 L 47.413088,25.118053 L 45.094519,26.948501" id="path4585" sodipodi:nodetypes="cccccccc"/>
  <path style="fill: url(#linearGradient5600) rgb(0, 0, 0); fill-opacity: 1; fill-rule: evenodd; stroke: none; stroke-width: 1px; stroke-linecap: butt; stroke-linejoin: miter; stroke-opacity: 1;" d="M 61.109448,20.405655 C 62.8955,23.04933 65.265194,25.284439 63.212082,28.816192 C 60.560758,30.125822 57.499434,29.795452 54.100668,28.115314 C 52.493794,26.070572 51.716303,23.942892 53.820317,21.527061 C 55.532253,18.999937 57.90279,18.448612 61.109448,20.405655 z " id="path4574" sodipodi:nodetypes="ccccc"/>
  <path style="fill: rgb(0, 0, 0); fill-rule: evenodd; stroke: none; stroke-width: 1px; stroke-linecap: butt; stroke-linejoin: miter; stroke-opacity: 1; fill-opacity: 0.09375; filter: url(#filter3192);" d="M 16.888889,55.333333 L 19.555555,89.111112 C 37.62963,99.650983 55.703704,92.33065 73.777778,92.888889 C 52.267121,84.675095 22.717665,90.044099 16.888889,55.333333 z " id="path2202" sodipodi:nodetypes="cccc"/>
  <path style="fill: url(#linearGradient5566) rgb(0, 0, 0); fill-opacity: 1; fill-rule: evenodd; stroke: none; stroke-width: 1px; stroke-linecap: butt; stroke-linejoin: miter; stroke-opacity: 1;" d="M 22.841507,41.431997 L 14.851497,43.814983 L 11.627458,47.319372 L 10.926581,56.991489 L 8.9641229,61.757459 L 13.16939,74.092913 L 14.290796,85.587315 L 13.730092,98.06294 L 17.514834,100.30575 C 20.834359,100.52112 23.861432,98.88429 26.065546,92.035387 L 26.065546,84.465911 L 21.860278,72.27063 C 20.281766,68.718065 21.000653,64.837301 22.000454,60.916406 L 28.028004,54.468328 C 34.366921,56.532092 38.164869,59.866341 43.16697,62.598514 L 43.16697,77.176777 L 42.325917,84.325733 L 44.849078,92.315743 L 45.690131,102.54856 L 49.8954,107.4547 L 56.904179,102.54856 C 58.396932,97.29075 58.47077,91.323475 58.726462,85.447138 L 55.6426,71.569752 L 59.006814,60.916406 L 63.632609,57.832542 C 69.975798,60.80579 70.589434,65.982711 72.323497,70.728699 L 70.64139,77.597304 L 74.005604,90.913983 L 73.024375,97.64242 C 75.622291,101.22314 78.982493,102.64406 83.817896,99.88523 C 86.273824,95.58065 86.20565,90.554894 87.322283,85.867662 L 81.294735,71.149225 C 80.963441,62.692613 84.461782,59.706905 86.481235,54.608504 C 90.593053,52.703062 94.704864,52.761605 98.816684,53.066572 C 102.58463,55.144392 103.63606,58.703937 103.30231,63.019041 L 99.51756,74.373264 L 100.49879,91.474694 C 105.48737,92.11772 110.08607,90.161471 113.95565,83.344502 L 111.01197,71.289401 C 110.11946,66.326239 111.89696,61.897081 112.69407,57.271841 C 114.38958,51.804992 111.25683,46.338143 108.62898,40.871294 C 105.74125,38.189422 105.05678,32.478056 99.51756,33.441987 C 94.602197,33.22742 91.534693,38.556437 88.023163,42.553401 C 84.339606,43.634991 76.848585,42.812885 67.41735,43.674807 C 63.398983,45.083228 59.380616,45.285949 55.362248,45.076562 L 41.90539,45.917617 L 28.16818,43.254279" id="path4576" sodipodi:nodetypes="ccccccccccccccccccccccccccccccccccccccccccccccc"/>
  <path style="fill: rgb(0, 0, 0); fill-opacity: 1; fill-rule: evenodd; stroke: none; stroke-width: 1px; stroke-linecap: butt; stroke-linejoin: miter; stroke-opacity: 1;" d="M 57.333131,18.621699 C 54.323505,18.86011 52.246129,21.577161 52.029967,24.307302 C 51.987447,24.308111 51.945169,24.305872 51.902487,24.307302 C 48.624215,24.417186 45.52678,24.989306 44.279189,27.137356 C 44.386937,27.543203 44.56432,27.889839 44.789109,28.208187 C 43.755837,28.396908 42.708305,28.539635 41.755087,28.539635 C 39.802759,28.539635 37.328549,28.124886 35.253613,28.539635 C 31.372004,28.349616 27.966251,29.318004 24.290342,30.502825 C 19.488614,31.771991 18.791805,33.01213 19.012674,38.279099 C 19.092877,39.594505 18.99414,40.58531 18.196803,41.364112 C 14.689576,42.507408 12.451991,44.971751 10.981441,49.063898 C 11.560157,53.647999 10.323073,57.809929 8.559323,61.786391 L 8.533827,61.862879 L 8.533827,61.939367 C 8.551107,66.824482 12.728482,70.24537 12.63868,75.146284 C 13.987812,82.119643 13.413922,88.016743 13.199592,94.42125 C 11.130995,95.95154 9.219428,98.46346 7.5139879,102.45248 L 7.4375,102.63095 L 7.5394839,102.80942 C 11.240089,110.10821 18.363123,113.47476 27.22238,114.69055 C 51.829538,114.49188 79.852565,115.24834 103.04742,106.48084 C 110.02121,101.03186 119.64135,97.92704 121.71048,88.939605 C 119.64661,85.355209 118.26936,81.002495 113.83222,80.62792 L 113.80672,81.239823 C 113.54965,79.128353 112.87283,77.22256 112.22597,75.350252 C 109.70932,69.803372 111.47713,64.60191 112.93986,59.083817 C 115.47529,49.829525 109.6232,42.319356 104.70466,34.684166 L 104.67916,34.65867 L 104.65367,34.633174 C 102.37596,32.366474 100.96476,31.99572 99.29951,32.517007 C 98.819782,30.494649 93.396582,27.86434 91.905679,27.188348 C 90.235747,26.45369 87.801561,28.192041 86.092595,27.723763 C 82.346717,25.501916 78.042613,25.867656 74.007501,25.27615 C 72.068961,25.682714 70.327967,26.650783 68.347393,27.11186 C 68.145507,27.156311 67.980035,27.187099 67.837474,27.213844 C 66.813951,26.347872 65.710551,25.636405 64.522997,25.123174 C 64.32144,24.106195 63.775234,23.008998 62.763774,21.910681 C 61.436412,20.68469 60.302075,18.999947 58.403962,18.647195 C 58.039219,18.606436 57.676013,18.594537 57.333131,18.621699 z M 57.639083,19.412075 C 57.833017,19.411075 58.043895,19.417349 58.250986,19.437571 C 64.180136,20.439455 66.49428,31.652551 58.35297,29.07505 C 51.937326,29.350331 51.627112,19.443026 57.639083,19.412075 z M 52.029967,25.02119 C 52.105193,26.709294 52.910459,28.311077 54.758037,29.253522 C 59.002258,32.602872 64.758777,29.980901 64.599484,25.837061 C 67.434543,27.158873 69.488923,30.003107 70.922488,32.899447 C 72.216249,39.755967 61.387659,41.067315 56.925195,41.236632 C 53.433867,41.43503 51.241026,40.417008 49.505865,37.590707 C 48.138685,35.037134 51.614764,34.984871 51.239592,32.389528 C 49.906992,30.03195 47.446906,28.799351 46.063908,26.448964 C 47.846453,25.543085 49.902717,25.177415 52.029967,25.02119 z M 74.491924,26.066525 C 78.584738,26.504656 81.852008,26.618053 85.710155,28.437651 C 87.400375,29.122393 90.539188,27.54736 92.262622,28.029715 C 94.757145,29.277585 95.852478,31.367084 98.330665,32.644487 C 98.347902,32.698269 98.404423,32.75897 98.483641,32.822959 C 97.604112,33.211243 96.598951,33.784143 95.373131,34.429206 C 90.62956,33.118257 85.379532,33.012257 80.126535,32.975935 C 77.409208,32.957147 74.706281,32.183652 72.069806,32.134568 C 72.027029,32.133772 71.984976,32.135022 71.942327,32.134568 C 70.999673,30.555805 69.830268,29.045403 68.474874,27.774756 C 70.176411,28.16195 72.827365,26.487947 74.491924,26.066525 z M 45.426508,28.922074 C 46.924995,30.278038 49.354498,30.958586 50.474712,32.69548 C 50.319217,33.714242 49.466208,34.36959 48.664497,35.041109 C 44.999767,35.932649 41.873838,37.598263 38.389618,38.534058 C 33.78308,39.771289 28.919228,40.268025 25.182701,41.69556 C 24.155901,41.435141 23.131977,41.123024 22.14868,40.650224 C 21.478644,40.695446 20.842123,40.777047 20.236481,40.879688 C 20.522074,40.386158 20.666397,39.80514 20.669913,39.09497 C 20.124338,33.888159 20.258363,32.731216 24.545301,31.2932 C 28.049578,29.433059 31.811199,30.344792 35.534069,29.890921 C 37.377537,29.52244 39.696546,29.355506 41.755087,29.355506 C 42.945574,29.355506 44.220269,29.162582 45.426508,28.922074 z M 100.14088,33.51135 C 101.33982,33.501259 102.55439,33.99022 104.04177,35.16859 C 104.05863,35.184504 104.07602,35.203529 104.09276,35.219581 C 108.86958,43.005153 114.24275,49.707031 112.14948,58.879849 C 110.12668,64.610095 109.50546,69.810275 111.4356,75.605212 C 112.31907,78.162365 113.24672,80.645281 113.09283,83.559957 L 113.09283,83.585453 C 111.89623,88.454357 106.07336,91.548832 101.31369,91.234246 C 101.07304,89.660725 101.05733,88.10213 101.05873,86.54299 C 101.15069,85.943678 101.21883,85.487608 101.44117,84.069874 L 101.03324,83.075534 C 100.98561,81.455033 100.82849,79.849427 100.37035,78.231297 C 98.974894,73.995954 102.08167,70.267101 103.09841,66.299179 L 103.09841,66.273683 L 103.09841,66.248187 C 103.88927,60.959119 104.30201,55.082694 98.534632,52.786311 C 93.591671,51.400996 87.756833,51.587987 84.817796,56.253764 C 78.162891,69.128206 81.624397,72.46708 83.186053,77.109474 C 84.532567,79.742951 85.97537,82.293243 86.322058,85.140711 C 86.323054,85.148879 86.321079,85.158025 86.322058,85.166202 C 86.358985,86.113103 86.315034,87.053618 86.24557,87.996261 L 86.169083,88.200228 C 86.194693,88.193384 86.219952,88.181599 86.24557,88.174728 C 85.838949,93.744301 85.725951,99.65529 79.157688,100.82073 C 73.693351,99.58075 73.476353,96.70071 74.134981,90.953795 C 73.783664,84.051954 70.393173,78.36153 72.29927,71.092424 L 72.324766,71.015936 L 72.324766,70.913951 C 70.703411,62.73191 66.291745,52.940403 58.403962,61.174488 C 53.30569,68.181453 55.873861,77.324847 57.817554,85.038727 C 58.456328,93.154637 58.667113,102.38675 49.964793,105.81795 C 47.773418,105.20554 46.694934,103.72392 46.140396,101.84058 C 45.587074,97.55899 45.457797,93.234937 44.381174,89.041589 C 41.764407,84.865348 43.657547,80.165475 44.304685,75.707196 C 44.305637,75.698732 44.303744,75.690164 44.304685,75.6817 C 44.772238,71.424505 42.33625,67.571199 43.208358,63.31615 L 43.284846,63.137678 L 43.157367,62.959207 C 40.502421,59.350334 35.50204,58.02679 32.092112,55.463388 C 29.802601,53.725848 27.358294,53.884921 25.412165,55.055453 C 19.337546,59.463105 19.25204,67.605363 21.664256,74.075453 L 21.664256,74.100949 L 21.689752,74.126445 C 25.504553,80.710967 28.851104,93.941061 21.103344,99.34197 C 18.449166,99.89051 14.498006,99.97492 13.938975,96.74138 C 17.053238,89.686372 13.045036,82.491516 13.454551,75.273764 C 15.002693,71.987411 10.324816,66.187437 9.349698,62.015855 C 11.120271,58.001256 12.93223,53.710667 12.332728,48.961914 C 12.179499,43.367352 17.519079,42.998989 21.89372,42.103495 C 25.896156,44.150006 30.518132,43.042571 34.718197,44.449126 C 34.734632,44.45984 34.752725,44.463989 34.769189,44.474622 C 38.810136,47.084177 43.713774,47.24452 48.231066,46.412316 L 48.256562,46.38682 L 48.282058,46.38682 C 52.919842,45.26785 57.673451,46.343159 62.304847,45.112021 C 69.856792,43.178028 77.131909,43.310365 84.741308,43.352798 C 91.298009,43.477837 90.625908,38.200034 94.965197,35.551029 C 97.077182,34.356734 98.599382,33.524326 100.14088,33.51135 z M 72.834686,33.817302 C 75.838795,34.195046 79.327454,33.664255 81.299351,35.143094 C 82.953676,34.207939 88.825931,33.937466 94.225811,35.092101 C 90.45047,37.842994 89.773247,42.483058 84.435356,42.944863 C 76.816575,41.565328 69.876819,43.857939 62.304847,44.29615 L 62.228358,44.29615 L 62.177366,44.321645 C 57.550945,45.629047 52.745112,43.811056 48.078091,44.933549 C 45.264706,45.193202 40.470535,46.000649 35.151629,43.760734 L 35.126133,43.735238 L 35.075141,43.709742 C 32.384456,42.78205 29.562393,42.591908 26.814444,42.078 C 30.247191,41.12568 34.394952,40.795692 38.364122,39.808858 C 41.40445,39.052956 44.119423,37.517872 47.262219,36.672852 C 47.069739,37.15597 47.061146,37.721802 47.338707,38.432074 C 48.924095,41.837616 53.392285,41.946753 56.925195,42.052504 C 61.753997,42.825306 74.8715,40.845572 72.962165,34.046766 C 72.925603,33.968589 72.87244,33.895487 72.834686,33.817302 z M 95.245647,44.806069 C 91.719139,45.538624 88.622665,48.021317 84.615272,48.299798 C 80.779055,48.566383 76.03665,46.629397 72.418812,47.26679 C 68.131318,48.022165 65.114895,50.685766 60.698615,50.941245 C 58.000962,51.097302 55.281845,49.158589 52.544391,49.282708 C 48.657981,49.45892 45.075965,51.545918 41.06226,51.346358 C 38.444806,51.216218 36.039094,48.359842 33.354734,48.146219 C 29.560073,47.844239 26.526497,49.711931 22.53112,49.089394 L 22.403639,49.267865 C 26.132816,50.077813 29.6337,48.740233 33.163655,49.185557 C 36.177547,49.565778 38.271464,51.684864 41.161595,51.889568 C 44.729275,52.142261 48.96885,50.498439 52.420385,50.411159 C 55.159655,50.341892 58.32923,52.304274 60.963039,52.14883 C 65.659744,51.871637 69.280103,49.326104 73.643916,48.398859 C 77.184145,47.646612 81.229423,49.649305 84.89603,49.194094 C 88.591947,48.735245 91.908985,45.818215 95.424123,44.984541 L 95.245647,44.806069 z M 93.154983,52.91379 C 94.886135,52.877414 96.681889,53.172339 98.330665,53.576686 C 103.845,55.39922 102.83828,61.563672 102.28254,66.1717 C 101.0689,70.393763 98.30539,73.974861 99.60546,78.511753 C 100.10478,80.095014 100.17885,81.743632 100.11539,83.406981 L 99.91141,82.693093 C 95.577055,84.388562 91.330137,85.75809 87.163423,86.874433 C 87.165439,86.290108 87.160974,85.696654 87.137931,85.115211 L 87.137931,85.089719 L 87.137931,85.064219 C 86.771384,81.996046 85.238785,79.371019 83.899941,76.752531 C 79.351427,69.117594 83.067906,64.266932 85.965115,56.738187 C 87.558326,53.939736 90.269718,52.97442 93.154983,52.91379 z M 29.517017,55.208428 C 30.15952,55.260992 30.836193,55.540785 31.607688,56.126283 C 35.174738,58.8078 39.981934,60.147268 42.417983,63.367142 C 41.45442,67.522693 43.143236,71.52417 42.800423,75.6817 C 40.702278,78.320963 42.010956,86.399533 43.692782,89.475024 C 43.916179,89.833732 44.080938,90.222734 44.228197,90.647836 C 38.242158,90.293982 32.3317,89.70289 26.457501,89.016097 C 26.410178,83.711106 24.336363,77.987823 22.403639,73.744005 C 22.4004,73.736705 22.406871,73.725815 22.403639,73.718509 C 19.9695,67.808828 20.820742,60.38782 26.406508,56.304756 C 27.270428,55.785138 28.052416,55.343753 28.879618,55.233925 C 29.086419,55.206468 29.30285,55.190908 29.517017,55.208428 z M 63.579646,58.573898 C 63.751416,58.557879 63.923116,58.563549 64.089565,58.573898 C 68.084337,58.822278 70.601727,66.380452 71.508894,70.964943 C 68.412821,77.605745 73.094807,83.42941 73.319109,89.704491 C 68.396421,90.406297 63.566375,90.743079 58.811897,90.877303 C 58.826212,88.644038 58.718827,86.583849 58.633426,84.987735 L 58.633426,84.962235 L 58.633426,84.911243 C 56.733741,77.466462 54.675878,67.950836 59.602273,61.148992 C 61.048108,59.469545 62.377248,58.686031 63.579646,58.573898 z M 113.83222,81.44379 C 117.91337,81.461969 117.81151,86.293145 119.77278,89.220065 C 116.86432,95.61068 111.5484,100.19675 102.20605,104.59414 C 79.366366,111.7231 52.498476,114.88995 28.140235,112.72736 C 19.513813,111.54352 12.451127,109.64711 8.8652751,102.78392 C 10.336613,99.39956 11.607408,97.07485 13.148599,95.59406 C 13.138512,96.00164 13.128498,96.40511 13.123103,96.81786 C 13.497987,100.98886 18.248671,100.79295 21.460288,100.08135 C 23.911586,98.2752 25.311139,95.93404 25.973077,93.324919 L 26.126053,94.1153 C 26.884969,95.13025 27.712431,96.07609 28.650155,96.94535 C 33.723425,99.40443 39.302083,100.51983 45.018573,100.87172 C 45.292112,104.28086 46.26176,107.17849 50.041281,107.88312 C 54.189296,107.47983 56.442414,104.47256 57.613586,100.61677 C 60.936748,100.33937 64.20667,99.9574 67.35305,99.54594 C 68.902361,99.00288 70.714069,98.57862 72.68171,98.19465 C 73.161818,99.83605 74.680737,100.90561 78.367313,101.6366 C 81.148062,101.97442 83.938091,101.19415 85.404203,98.83205 L 85.404203,98.80655 C 85.706018,97.79379 85.968819,96.75985 86.194579,95.72154 C 91.575768,94.48293 96.607301,92.631091 99.78394,89.118081 C 99.77174,90.078238 99.80067,91.037486 99.9624,91.973631 C 106.51613,94.70281 111.00526,89.190974 113.9087,83.610949 C 113.9483,82.861032 113.90722,82.141499 113.83222,81.44379 z M 100.11539,83.508965 C 100.05725,84.90728 99.91851,86.313107 99.83493,87.715802 C 96.134409,90.945532 91.43739,92.946387 86.449539,94.34476 C 86.839483,92.219098 87.075475,90.072017 87.137931,87.919769 C 91.341135,86.757142 95.660409,85.338837 100.11539,83.508965 z M 26.457501,89.37304 C 32.537564,90.12634 38.501777,90.816179 44.432165,91.285238 C 45.049732,93.692782 44.821252,96.87113 44.942084,99.8009 C 39.369338,99.7581 33.955132,98.89568 29.134578,96.28245 C 28.031608,95.08404 27.061074,93.779493 26.177045,92.407057 C 26.361241,91.41883 26.448874,90.410252 26.457501,89.37304 z M 73.319109,90.800811 C 73.317734,90.826553 73.320657,90.851543 73.319109,90.877303 C 72.903144,93.494318 72.424817,95.51393 72.503238,97.09832 C 70.771774,97.36044 69.003996,97.62093 67.378546,97.8887 C 64.397815,98.11201 61.250365,98.48985 58.047018,98.85754 C 58.535596,96.59267 58.73414,94.15609 58.786401,91.846148 C 63.559105,91.797137 68.381249,91.482481 73.319109,90.800811 z " id="path3424" sodipodi:nodetypes="ccsccscccccccccccccccccccccccccccsccccccccccccccccccccccccssccccccsccccccsccsccccccccccccccccsscccccccccccccsscccccccccccccccscccccccccccccccccccsccccccssssssccssssssccccccccccccccccccccccsscsccscccccccccccccccccccccccccccccccccccccccccccccccccc"/>
  <path sodipodi:type="arc" style="fill: rgb(255, 255, 255); fill-opacity: 1; stroke: none; stroke-width: 6; stroke-linejoin: miter; stroke-miterlimit: 4; stroke-dasharray: none; stroke-opacity: 1; filter: url(#filter7673);" id="path6634" sodipodi:cx="67.057289" sodipodi:cy="29.817709" sodipodi:rx="2.4739583" sodipodi:ry="2.2135417" d="M 69.531247 29.817709 A 2.4739583 2.2135417 0 1 1  64.583331,29.817709 A 2.4739583 2.2135417 0 1 1  69.531247 29.817709 z" transform="matrix(0.865295, 0, 0, 0.865295, -1.44078, -2.91063)"/>
</svg>