<?xml version="1.0" encoding="UTF-8" standalone="no"?>
<!-- Created with Inkscape (http://www.inkscape.org/) -->
<svg
   xmlns:dc="http://purl.org/dc/elements/1.1/"
   xmlns:cc="http://creativecommons.org/ns#"
   xmlns:rdf="http://www.w3.org/1999/02/22-rdf-syntax-ns#"
   xmlns:svg="http://www.w3.org/2000/svg"
   xmlns="http://www.w3.org/2000/svg"
   xmlns:sodipodi="http://sodipodi.sourceforge.net/DTD/sodipodi-0.dtd"
   xmlns:inkscape="http://www.inkscape.org/namespaces/inkscape"
   width="131.10236"
   height="184.25197"
   id="svg3365"
   sodipodi:version="0.32"
   inkscape:version="0.46"
   sodipodi:docname="chefs_hat.svg"
   inkscape:output_extension="org.inkscape.output.svg.inkscape"
   version="1.0">
  <defs
     id="defs3367">
    <inkscape:perspective
       sodipodi:type="inkscape:persp3d"
       inkscape:vp_x="0 : 92.125984 : 1"
       inkscape:vp_y="0 : 1000 : 0"
       inkscape:vp_z="131.10236 : 92.125984 : 1"
       inkscape:persp3d-origin="65.551178 : 61.417323 : 1"
       id="perspective8" />
  </defs>
  <sodipodi:namedview
     id="base"
     pagecolor="#ffffff"
     bordercolor="#666666"
     borderopacity="1.0"
     gridtolerance="10000"
     guidetolerance="10"
     objecttolerance="10"
     inkscape:pageopacity="0.0"
     inkscape:pageshadow="2"
     inkscape:zoom="2.6811111"
     inkscape:cx="69.262156"
     inkscape:cy="92.125984"
     inkscape:document-units="px"
     inkscape:current-layer="layer1"
     showgrid="false"
     inkscape:window-width="660"
     inkscape:window-height="709"
     inkscape:window-x="0"
     inkscape:window-y="0" />
  <metadata
     id="metadata3370">
    <rdf:RDF>
      <cc:Work
         rdf:about="">
        <dc:format>image/svg+xml</dc:format>
        <dc:type
           rdf:resource="http://purl.org/dc/dcmitype/StillImage" />
      </cc:Work>
    </rdf:RDF>
  </metadata>
  <g
     inkscape:label="Layer 1"
     inkscape:groupmode="layer"
     id="layer1">
    <path
       d="M 93.542531,27.811677 C 90.307484,19.754727 78.133814,23.065777 70.899654,21.977287 C 64.914234,21.076667 59.528604,17.323957 53.556184,16.012527 C 42.266544,13.533457 25.988104,18.228917 19.614904,26.584507 C 13.121654,35.097597 12.463854,47.244647 15.128874,56.854577 C 16.108874,60.388397 18.383274,63.544667 19.400094,67.080947 C 21.279884,73.618457 22.036294,82.035577 21.627854,88.760847 C 21.248944,94.999337 12.339704,104.98355 16.693494,110.8494 C 19.248624,114.29201 24.836694,116.06649 28.986264,117.71375 C 40.241214,122.18226 52.308444,123.66348 64.556304,123.65939 C 69.111384,123.65775 77.684814,122.42606 81.345734,119.85147 C 83.255924,118.50854 82.806434,115.59034 83.081524,113.71319 C 83.809464,108.74604 83.842714,102.56972 86.841204,98.169107 C 94.310941,87.206027 103.76506,77.191137 112.07163,66.671887 C 115.84865,61.888807 121.07868,56.441017 122.67379,50.718757 C 124.33443,44.759237 123.68647,35.352927 118.41163,30.813937 C 112.20988,25.477327 102.43904,25.674417 94.661941,27.630637 M 66.082034,22.903017 C 56.691024,25.383237 50.199254,37.528197 50.183844,45.401037 C 50.071934,47.929287 49.026644,52.547227 52.110894,53.991197 C 50.762924,44.934307 52.873044,31.385387 62.792064,25.826037 C 69.626834,21.995167 85.159854,21.361457 90.945824,27.036187 C 94.535921,30.557537 94.562901,36.100107 93.935641,40.492377 C 92.911901,47.655747 85.766874,52.364377 82.461974,58.490797 C 88.490274,57.050097 95.407911,45.642377 95.724431,40.492377 C 96.042881,35.315177 93.140741,29.935197 100.76897,28.191077 C 116.0216,24.703597 121.41892,36.595747 120.82587,46.859637 C 120.16866,50.673427 117.65719,56.400927 115.19584,59.717957 C 109.68256,67.147207 104.2685,75.209267 97.420241,81.806917 C 95.235921,83.911497 88.731164,93.058787 84.687244,88.918737 C 83.303614,87.502187 85.097704,85.516227 85.983184,84.261237 C 89.038524,79.932627 92.509141,75.981157 95.469581,71.580547 C 89.550644,74.052467 88.240244,82.331737 81.980214,85.484727 C 78.700374,87.136487 72.182114,84.686247 71.534624,81.391717 C 70.872684,78.023567 73.306544,73.569367 75.235524,70.762437 C 70.910744,73.473247 72.003374,78.631017 68.302954,81.093927 C 66.363864,82.384497 62.827494,81.418967 60.731344,80.975957 C 58.477654,80.500227 54.997614,80.280727 53.364924,78.733687 C 52.151844,77.583827 52.595544,75.453477 52.592654,74.034877 C 52.586394,70.847117 52.104154,67.697387 51.147364,64.626617 C 51.147364,64.626617 52.227484,74.954017 49.770484,77.586287 C 47.442124,80.080707 37.919774,79.301947 37.189724,76.481427 L 36.212704,67.080947 C 34.945184,70.033907 36.046024,73.214307 34.781874,76.072377 C 34.019244,77.797357 29.673734,80.218147 28.313424,77.649687 C 27.083974,75.328307 27.776604,71.272527 27.490774,68.717167 C 27.091964,65.151837 25.713354,61.161097 24.650394,57.672687 C 24.650394,57.672687 26.021924,68.493817 26.093804,73.625827 C 26.125064,75.857627 25.334714,80.838017 23.527014,78.538257 C 21.524324,74.122517 22.149314,71.474817 20.845374,66.940037 C 19.867014,63.537517 17.713774,59.414027 16.690894,56.036467 C 14.009394,47.182067 15.087014,36.657117 20.477364,28.629787 C 27.420914,18.289327 46.137514,14.214527 58.373814,19.117377 C 60.918484,20.136987 64.488354,20.837007 66.082034,22.903017 M 35.730944,39.265217 L 36.106094,39.808347 C 36.675064,33.739157 41.223524,25.664137 48.738544,24.130177 C 41.326144,21.513907 33.263834,34.201767 35.730944,39.265217 M 106.06837,34.765607 C 107.66397,38.068637 109.2232,41.104617 108.40998,44.784477 C 108.10341,47.718217 105.87759,51.096307 105.10484,53.991197 C 110.15986,50.421917 112.53764,38.436147 106.06837,34.765607 M 81.498454,115.75846 C 63.492064,107.714 37.479744,103.4811 17.423944,107.98643 C 17.767444,101.60435 22.566424,95.973297 23.160104,89.578957 C 23.361094,87.414237 22.512644,83.426357 24.454874,81.685017 C 27.431444,79.016337 34.697084,79.723597 38.621524,79.763277 C 51.547714,79.893767 65.775624,81.941087 77.162574,87.360237 C 80.059424,88.739167 84.648704,89.991697 86.499634,92.459927 C 88.147264,94.656967 84.918484,97.334637 84.080224,99.396267 C 82.149304,104.14499 81.502304,110.72914 81.498454,115.75846 M 77.338604,116.26317 C 79.672224,117.51835 81.142654,118.52964 79.109514,119.57544 C 67.213674,124.36673 53.138974,121.95401 41.030344,118.28642 C 37.911404,117.34151 28.927334,115.44349 29.249444,111.68551 C 29.589424,107.71931 37.329574,108.35193 40.288084,108.35193 C 53.165814,108.80453 65.593334,110.85941 77.338604,116.26317 z"
       id="path3"
       sodipodi:nodetypes="ccccccccccccccccccccccccccccccccccccccccccccccccccccccccccccccccccccccccccccc"
       style="fill:#000000;stroke:none" />
    <path
       sodipodi:type="arc"
       style="opacity:1;fill:#ffffff;fill-opacity:1;fill-rule:evenodd;stroke:#ffffff;stroke-width:0.50000000000000000;stroke-linecap:round;stroke-linejoin:round;stroke-miterlimit:4;stroke-dasharray:none;stroke-dashoffset:0;stroke-opacity:1"
       id="path2383"
       sodipodi:cx="31.143805"
       sodipodi:cy="142.10527"
       sodipodi:rx="16.970575"
       sodipodi:ry="11.93535"
       d="M 48.11438,142.10527 A 16.970575,11.93535 0 1 1 14.173229,142.10527 A 16.970575,11.93535 0 1 1 48.11438,142.10527 z"
       transform="matrix(1.8989643,0.3001098,-0.1253989,0.6850093,8.0987002,5.8948126)" />
  </g>
</svg>
